<?xml version="1.0" encoding="UTF-8" standalone="no"?>
<!DOCTYPE svg PUBLIC "-//W3C//DTD SVG 1.1//EN"
 "http://www.w3.org/Graphics/SVG/1.1/DTD/svg11.dtd">
<!-- Generated by graphviz version 2.40.1 (20161225.0304)
 -->
<!-- Pages: 1 -->
<svg width="470pt" height="959pt"
 viewBox="0.00 0.00 470.00 958.66" xmlns="http://www.w3.org/2000/svg" xmlns:xlink="http://www.w3.org/1999/xlink">
<g id="graph0" class="graph" transform="scale(1 1) rotate(0) translate(4 954.6641)">
<polygon fill="#ffffff" stroke="transparent" points="-4,4 -4,-954.6641 466,-954.6641 466,4 -4,4"/>
<g id="cluster_._top" class="cluster">
<title>cluster_.</title>
<polygon fill="none" stroke="#000000" stroke-width=".5" points="176,-647.5006 176,-942.6641 454,-942.6641 454,-647.5006 176,-647.5006"/>
<text text-anchor="start" x="188.5" y="-675.9006" font-family="Times,serif" font-size="12.00" fill="#000000">.</text>
<text text-anchor="start" x="188.5" y="-658.5006" font-family="Times,serif" font-size="10.00" fill="#000000">(2025&#45;05&#45;08 03:30:04 UTC)</text>
</g>
<g id="cluster_iij.ad.jp_top" class="cluster">
<title>cluster_iij.ad.jp</title>
<polygon fill="none" stroke="#000000" stroke-width=".5" points="8,-8 8,-314.3371 304,-314.3371 304,-8 8,-8"/>
<text text-anchor="start" x="20.5" y="-36.4" font-family="Times,serif" font-size="12.00" fill="#000000">iij.ad.jp</text>
<text text-anchor="start" x="20.5" y="-19" font-family="Times,serif" font-size="10.00" fill="#000000">(2025&#45;05&#45;08 06:43:29 UTC)</text>
</g>
<g id="cluster_jp_top" class="cluster">
<title>cluster_jp</title>
<polygon fill="none" stroke="#000000" stroke-width=".5" points="99,-337.3371 99,-624.5006 368,-624.5006 368,-337.3371 99,-337.3371"/>
<text text-anchor="start" x="111.5" y="-365.7371" font-family="Times,serif" font-size="12.00" fill="#000000">jp</text>
<text text-anchor="start" x="111.5" y="-348.3371" font-family="Times,serif" font-size="10.00" fill="#000000">(2025&#45;05&#45;08 05:51:20 UTC)</text>
</g>
<!-- cluster_._top -->
<!-- cluster_._bottom -->
<!-- DNSKEY&#45;6|.|8|38696 -->
<g id="DNSKEY&#45;6|.|8|38696" class="node">
<title>DNSKEY&#45;6|.|8|38696</title>
<ellipse fill="#d3d3d3" stroke="#0a879a" stroke-width="1.5" cx="385" cy="-794.2113" rx="60.623" ry="28.0702"/>
<text text-anchor="start" x="359" y="-801.6113" font-family="Helvetica,sans-Serif" font-size="12.00" fill="#000000">DNSKEY</text>
<text text-anchor="start" x="350" y="-791.2113" font-family="Times,serif" font-size="10.00" fill="#000000">alg=8, id=38696</text>
<text text-anchor="start" x="365.5" y="-781.2113" font-family="Times,serif" font-size="10.00" fill="#000000">2048 bits</text>
</g>
<!-- DNSKEY&#45;7|.|8|20326 -->
<g id="DNSKEY&#45;7|.|8|20326" class="node">
<title>DNSKEY&#45;7|.|8|20326</title>
<ellipse fill="#d3d3d3" stroke="#0a879a" stroke-width="1.5" cx="306" cy="-876.7798" rx="60.6345" ry="28.0965"/>
<ellipse fill="none" stroke="#0a879a" stroke-width="1.5" cx="306" cy="-876.7798" rx="64.6229" ry="32.07"/>
<text text-anchor="start" x="280" y="-884.1798" font-family="Helvetica,sans-Serif" font-size="12.00" fill="#000000">DNSKEY</text>
<text text-anchor="start" x="271" y="-873.7798" font-family="Times,serif" font-size="10.00" fill="#000000">alg=8, id=20326</text>
<text text-anchor="start" x="286.5" y="-863.7798" font-family="Times,serif" font-size="10.00" fill="#000000">2048 bits</text>
</g>
<!-- DNSKEY&#45;6|.|8|38696&#45;&gt;DNSKEY&#45;7|.|8|20326 -->
<g id="RRSIG&#45;DNSKEY&#45;6|.|8|38696|DNSKEY&#45;7|.|8|20326|0a879a|solid" class="edge">
<title>DNSKEY&#45;6|.|8|38696&#45;&gt;DNSKEY&#45;7|.|8|20326</title>
<path fill="none" stroke="#0a879a" stroke-width="1.5" d="M352.8695,-827.7932C346.6606,-834.2825 340.1998,-841.0351 334.1305,-847.3786"/>
<polygon fill="#0a879a" stroke="#0a879a" stroke-width="1.5" points="355.6196,-829.9816 360.0039,-820.3365 350.5617,-825.1423 355.6196,-829.9816"/>
</g>
<!-- DNSKEY&#45;7|.|8|20326&#45;&gt;cluster_._top -->
<!-- DNSKEY&#45;7|.|8|20326&#45;&gt;DNSKEY&#45;7|.|8|20326 -->
<g id="RRSIG&#45;DNSKEY&#45;7|.|8|20326|DNSKEY&#45;7|.|8|20326|0a879a|solid" class="edge">
<title>DNSKEY&#45;7|.|8|20326&#45;&gt;DNSKEY&#45;7|.|8|20326</title>
<path fill="none" stroke="#0a879a" stroke-width="1.5" d="M377.6332,-868.3098C384.4782,-870.0343 388.8112,-872.8577 388.8112,-876.7798 388.8112,-882.3579 380.0469,-885.7135 367.7563,-886.8466"/>
<polygon fill="#0a879a" stroke="#0a879a" stroke-width="1.5" points="378.1867,-864.8539 367.7563,-866.713 377.0695,-871.7642 378.1867,-864.8539"/>
</g>
<!-- DNSKEY&#45;8|.|8|53148 -->
<g id="DNSKEY&#45;8|.|8|53148" class="node">
<title>DNSKEY&#45;8|.|8|53148</title>
<ellipse fill="#ffffff" stroke="#0a879a" stroke-width="1.5" cx="245" cy="-794.2113" rx="60.623" ry="28.0702"/>
<text text-anchor="start" x="219" y="-801.6113" font-family="Helvetica,sans-Serif" font-size="12.00" fill="#000000">DNSKEY</text>
<text text-anchor="start" x="210" y="-791.2113" font-family="Times,serif" font-size="10.00" fill="#000000">alg=8, id=53148</text>
<text text-anchor="start" x="225.5" y="-781.2113" font-family="Times,serif" font-size="10.00" fill="#000000">2048 bits</text>
</g>
<!-- DNSKEY&#45;8|.|8|53148&#45;&gt;DNSKEY&#45;7|.|8|20326 -->
<g id="RRSIG&#45;DNSKEY&#45;8|.|8|53148|DNSKEY&#45;7|.|8|20326|0a879a|solid" class="edge">
<title>DNSKEY&#45;8|.|8|53148&#45;&gt;DNSKEY&#45;7|.|8|20326</title>
<path fill="none" stroke="#0a879a" stroke-width="1.5" d="M270.9451,-829.3301C275.1026,-834.9576 279.3756,-840.7414 283.4456,-846.2506"/>
<polygon fill="#0a879a" stroke="#0a879a" stroke-width="1.5" points="273.7309,-827.2107 264.9737,-821.2473 268.1007,-831.3702 273.7309,-827.2107"/>
</g>
<!-- DS&#45;0|jp|8|35821|2 -->
<g id="DS&#45;0|jp|8|35821|2" class="node">
<title>DS&#45;0|jp|8|35821|2</title>
<ellipse fill="#ffffff" stroke="#0a879a" stroke-width="1.5" cx="254" cy="-722.7138" rx="48.1667" ry="21.4286"/>
<text text-anchor="start" x="245" y="-725.1138" font-family="Helvetica,sans-Serif" font-size="12.00" fill="#000000">DS</text>
<text text-anchor="start" x="228" y="-714.7138" font-family="Times,serif" font-size="10.00" fill="#000000">digest alg=2</text>
</g>
<!-- DS&#45;0|jp|8|35821|2&#45;&gt;DNSKEY&#45;8|.|8|53148 -->
<g id="RRSIG&#45;DS&#45;0|jp|8|35821|2|DNSKEY&#45;8|.|8|53148|0a879a|solid" class="edge">
<title>DS&#45;0|jp|8|35821|2&#45;&gt;DNSKEY&#45;8|.|8|53148</title>
<path fill="none" stroke="#0a879a" stroke-width="1.5" d="M250.0382,-754.187C249.5478,-758.0825 249.0488,-762.0467 248.5649,-765.891"/>
<polygon fill="#0a879a" stroke="#0a879a" stroke-width="1.5" points="253.5233,-754.5242 251.2997,-744.1654 246.5781,-753.6499 253.5233,-754.5242"/>
</g>
<!-- cluster_iij.ad.jp_top -->
<!-- cluster_jp_bottom -->
<!-- cluster_iij.ad.jp_top&#45;&gt;cluster_jp_bottom -->
<g id="del&#45;iij.ad.jp|jp" class="edge">
<title>cluster_iij.ad.jp_top&#45;&gt;cluster_jp_bottom</title>
<path fill="none" stroke="#0a879a" stroke-width="5" d="M126.5946,-316.0034C124.3434,-322.2351 121.7228,-330.1223 120,-337.3371"/>
<polygon fill="#0a879a" stroke="#0a879a" stroke-width="5" points="127.4719,-325.2509 127.2909,-314.3371 119.3983,-321.8771 127.4719,-325.2509"/>
</g>
<!-- cluster_iij.ad.jp_bottom -->
<!-- RRset&#45;10|eng&#45;blog.iij.ad.jp|AAAA -->
<g id="RRset&#45;10|eng&#45;blog.iij.ad.jp|AAAA" class="node">
<title>RRset&#45;10|eng&#45;blog.iij.ad.jp|AAAA</title>
<path fill="#ffffff" stroke="#0a879a" stroke-width="1.5" d="M147.5,-123.6C147.5,-123.6 30.5,-123.6 30.5,-123.6 24.5,-123.6 18.5,-117.6 18.5,-111.6 18.5,-111.6 18.5,-99.6 18.5,-99.6 18.5,-93.6 24.5,-87.6 30.5,-87.6 30.5,-87.6 147.5,-87.6 147.5,-87.6 153.5,-87.6 159.5,-93.6 159.5,-99.6 159.5,-99.6 159.5,-111.6 159.5,-111.6 159.5,-117.6 153.5,-123.6 147.5,-123.6"/>
<text text-anchor="start" x="26.5" y="-102.5" font-family="Helvetica,sans-Serif" font-size="12.00" fill="#000000">eng&#45;blog.iij.ad.jp/AAAA</text>
</g>
<!-- cluster_iij.ad.jp_bottom&#45;&gt;RRset&#45;10|eng&#45;blog.iij.ad.jp|AAAA -->
<!-- RRset&#45;11|eng&#45;blog.iij.ad.jp|A -->
<g id="RRset&#45;11|eng&#45;blog.iij.ad.jp|A" class="node">
<title>RRset&#45;11|eng&#45;blog.iij.ad.jp|A</title>
<path fill="#ffffff" stroke="#0a879a" stroke-width="1.5" d="M282,-123.6C282,-123.6 190,-123.6 190,-123.6 184,-123.6 178,-117.6 178,-111.6 178,-111.6 178,-99.6 178,-99.6 178,-93.6 184,-87.6 190,-87.6 190,-87.6 282,-87.6 282,-87.6 288,-87.6 294,-93.6 294,-99.6 294,-99.6 294,-111.6 294,-111.6 294,-117.6 288,-123.6 282,-123.6"/>
<text text-anchor="start" x="186" y="-102.5" font-family="Helvetica,sans-Serif" font-size="12.00" fill="#000000">eng&#45;blog.iij.ad.jp/A</text>
</g>
<!-- cluster_iij.ad.jp_bottom&#45;&gt;RRset&#45;11|eng&#45;blog.iij.ad.jp|A -->
<!-- DNSKEY&#45;0|iij.ad.jp|8|31668 -->
<g id="DNSKEY&#45;0|iij.ad.jp|8|31668" class="node">
<title>DNSKEY&#45;0|iij.ad.jp|8|31668</title>
<ellipse fill="#ffffff" stroke="#0a879a" stroke-width="1.5" cx="77" cy="-173.8843" rx="60.623" ry="28.0702"/>
<text text-anchor="start" x="51" y="-181.2843" font-family="Helvetica,sans-Serif" font-size="12.00" fill="#000000">DNSKEY</text>
<text text-anchor="start" x="42" y="-170.8843" font-family="Times,serif" font-size="10.00" fill="#000000">alg=8, id=31668</text>
<text text-anchor="start" x="57.5" y="-160.8843" font-family="Times,serif" font-size="10.00" fill="#000000">1024 bits</text>
</g>
<!-- DNSKEY&#45;1|iij.ad.jp|8|18490 -->
<g id="DNSKEY&#45;1|iij.ad.jp|8|18490" class="node">
<title>DNSKEY&#45;1|iij.ad.jp|8|18490</title>
<ellipse fill="#d3d3d3" stroke="#0a879a" stroke-width="1.5" cx="147" cy="-252.4528" rx="60.623" ry="28.0702"/>
<text text-anchor="start" x="121" y="-259.8528" font-family="Helvetica,sans-Serif" font-size="12.00" fill="#000000">DNSKEY</text>
<text text-anchor="start" x="112" y="-249.4528" font-family="Times,serif" font-size="10.00" fill="#000000">alg=8, id=18490</text>
<text text-anchor="start" x="127.5" y="-239.4528" font-family="Times,serif" font-size="10.00" fill="#000000">2048 bits</text>
</g>
<!-- DNSKEY&#45;0|iij.ad.jp|8|31668&#45;&gt;DNSKEY&#45;1|iij.ad.jp|8|18490 -->
<g id="RRSIG&#45;DNSKEY&#45;0|iij.ad.jp|8|31668|DNSKEY&#45;1|iij.ad.jp|8|18490|0a879a|solid" class="edge">
<title>DNSKEY&#45;0|iij.ad.jp|8|31668&#45;&gt;DNSKEY&#45;1|iij.ad.jp|8|18490</title>
<path fill="none" stroke="#0a879a" stroke-width="1.5" d="M107.139,-207.7126C112.633,-213.8791 118.29,-220.2285 123.5541,-226.137"/>
<polygon fill="#0a879a" stroke="#0a879a" stroke-width="1.5" points="109.5745,-205.1847 100.309,-200.0465 104.3479,-209.8412 109.5745,-205.1847"/>
</g>
<!-- DNSKEY&#45;1|iij.ad.jp|8|18490&#45;&gt;cluster_iij.ad.jp_top -->
<!-- DNSKEY&#45;1|iij.ad.jp|8|18490&#45;&gt;DNSKEY&#45;1|iij.ad.jp|8|18490 -->
<g id="RRSIG&#45;DNSKEY&#45;1|iij.ad.jp|8|18490|DNSKEY&#45;1|iij.ad.jp|8|18490|0a879a|solid" class="edge">
<title>DNSKEY&#45;1|iij.ad.jp|8|18490&#45;&gt;DNSKEY&#45;1|iij.ad.jp|8|18490</title>
<path fill="none" stroke="#0a879a" stroke-width="1.5" d="M214.3958,-244.4041C221.3578,-245.9851 225.8112,-248.668 225.8112,-252.4528 225.8112,-257.8356 216.8032,-260.9896 204.382,-261.9148"/>
<polygon fill="#0a879a" stroke="#0a879a" stroke-width="1.5" points="214.773,-240.9228 204.382,-242.9908 213.7947,-247.8541 214.773,-240.9228"/>
</g>
<!-- DS&#45;1|iij.ad.jp|8|18490|2 -->
<g id="DS&#45;1|iij.ad.jp|8|18490|2" class="node">
<title>DS&#45;1|iij.ad.jp|8|18490|2</title>
<ellipse fill="#ffffff" stroke="#0a879a" stroke-width="1.5" cx="177" cy="-412.5503" rx="48.1667" ry="21.4286"/>
<text text-anchor="start" x="168" y="-414.9503" font-family="Helvetica,sans-Serif" font-size="12.00" fill="#000000">DS</text>
<text text-anchor="start" x="151" y="-404.5503" font-family="Times,serif" font-size="10.00" fill="#000000">digest alg=2</text>
</g>
<!-- DNSKEY&#45;1|iij.ad.jp|8|18490&#45;&gt;DS&#45;1|iij.ad.jp|8|18490|2 -->
<g id="digest&#45;DNSKEY&#45;1|iij.ad.jp|8|18490|DS&#45;1|iij.ad.jp|8|18490|2|0a879a|solid" class="edge">
<title>DNSKEY&#45;1|iij.ad.jp|8|18490&#45;&gt;DS&#45;1|iij.ad.jp|8|18490|2</title>
<path fill="none" stroke="#0a879a" stroke-width="1.5" d="M154.1998,-290.8751C160.0938,-322.3287 168.2138,-365.6622 173.0046,-391.2285"/>
<polygon fill="#0a879a" stroke="#0a879a" stroke-width="1.5" points="157.5763,-289.8908 152.2943,-280.7065 150.6961,-291.1801 157.5763,-289.8908"/>
</g>
<!-- DNSKEY&#45;2|iij.ad.jp|8|13173 -->
<g id="DNSKEY&#45;2|iij.ad.jp|8|13173" class="node">
<title>DNSKEY&#45;2|iij.ad.jp|8|13173</title>
<ellipse fill="#ffffff" stroke="#0a879a" stroke-width="1.5" cx="217" cy="-173.8843" rx="60.623" ry="28.0702"/>
<text text-anchor="start" x="191" y="-181.2843" font-family="Helvetica,sans-Serif" font-size="12.00" fill="#000000">DNSKEY</text>
<text text-anchor="start" x="182" y="-170.8843" font-family="Times,serif" font-size="10.00" fill="#000000">alg=8, id=13173</text>
<text text-anchor="start" x="197.5" y="-160.8843" font-family="Times,serif" font-size="10.00" fill="#000000">1024 bits</text>
</g>
<!-- DNSKEY&#45;2|iij.ad.jp|8|13173&#45;&gt;DNSKEY&#45;1|iij.ad.jp|8|18490 -->
<g id="RRSIG&#45;DNSKEY&#45;2|iij.ad.jp|8|13173|DNSKEY&#45;1|iij.ad.jp|8|18490|0a879a|solid" class="edge">
<title>DNSKEY&#45;2|iij.ad.jp|8|13173&#45;&gt;DNSKEY&#45;1|iij.ad.jp|8|18490</title>
<path fill="none" stroke="#0a879a" stroke-width="1.5" d="M186.861,-207.7126C181.367,-213.8791 175.71,-220.2285 170.4459,-226.137"/>
<polygon fill="#0a879a" stroke="#0a879a" stroke-width="1.5" points="189.6521,-209.8412 193.691,-200.0465 184.4255,-205.1847 189.6521,-209.8412"/>
</g>
<!-- DNSKEY&#45;2|iij.ad.jp|8|13173&#45;&gt;DNSKEY&#45;2|iij.ad.jp|8|13173 -->
<g id="RRSIG&#45;DNSKEY&#45;2|iij.ad.jp|8|13173|DNSKEY&#45;2|iij.ad.jp|8|13173|0a879a|solid" class="edge">
<title>DNSKEY&#45;2|iij.ad.jp|8|13173&#45;&gt;DNSKEY&#45;2|iij.ad.jp|8|13173</title>
<path fill="none" stroke="#0a879a" stroke-width="1.5" d="M281.4388,-162.5994C290.072,-164.5041 295.8112,-168.2657 295.8112,-173.8843 295.8112,-181.4546 285.3922,-185.6537 271.5137,-186.4817"/>
<polygon fill="#0a879a" stroke="#0a879a" stroke-width="1.5" points="281.8863,-159.1282 271.5137,-161.2868 280.9685,-166.0678 281.8863,-159.1282"/>
</g>
<!-- RRset&#45;10|eng&#45;blog.iij.ad.jp|AAAA&#45;&gt;DNSKEY&#45;2|iij.ad.jp|8|13173 -->
<g id="RRSIG&#45;RRset&#45;10|eng&#45;blog.iij.ad.jp|AAAA|DNSKEY&#45;2|iij.ad.jp|8|13173|0a879a|solid" class="edge">
<title>RRset&#45;10|eng&#45;blog.iij.ad.jp|AAAA&#45;&gt;DNSKEY&#45;2|iij.ad.jp|8|13173</title>
<path fill="none" stroke="#0a879a" stroke-width="1.5" d="M131.797,-128.4309C146.3749,-136.2078 162.6074,-144.8674 176.9608,-152.5245"/>
<polygon fill="#0a879a" stroke="#0a879a" stroke-width="1.5" points="133.436,-125.3385 122.9656,-123.7197 130.1412,-131.5146 133.436,-125.3385"/>
</g>
<!-- RRset&#45;11|eng&#45;blog.iij.ad.jp|A&#45;&gt;DNSKEY&#45;2|iij.ad.jp|8|13173 -->
<g id="RRSIG&#45;RRset&#45;11|eng&#45;blog.iij.ad.jp|A|DNSKEY&#45;2|iij.ad.jp|8|13173|0a879a|solid" class="edge">
<title>RRset&#45;11|eng&#45;blog.iij.ad.jp|A&#45;&gt;DNSKEY&#45;2|iij.ad.jp|8|13173</title>
<path fill="none" stroke="#0a879a" stroke-width="1.5" d="M228.2252,-133.5418C227.1033,-137.5739 225.9482,-141.7253 224.8253,-145.7609"/>
<polygon fill="#0a879a" stroke="#0a879a" stroke-width="1.5" points="231.5995,-134.4712 230.9083,-123.8989 224.8557,-132.5947 231.5995,-134.4712"/>
</g>
<!-- cluster_jp_top -->
<!-- cluster_jp_top&#45;&gt;cluster_._bottom -->
<g id="del&#45;jp|." class="edge">
<title>cluster_jp_top&#45;&gt;cluster_._bottom</title>
<path fill="none" stroke="#0a879a" stroke-width="5" d="M203.5946,-626.1669C201.3434,-632.3986 198.7228,-640.2858 197,-647.5006"/>
<polygon fill="#0a879a" stroke="#0a879a" stroke-width="5" points="204.4719,-635.4144 204.2909,-624.5006 196.3983,-632.0406 204.4719,-635.4144"/>
</g>
<!-- DNSKEY&#45;3|jp|8|35821 -->
<g id="DNSKEY&#45;3|jp|8|35821" class="node">
<title>DNSKEY&#45;3|jp|8|35821</title>
<ellipse fill="#d3d3d3" stroke="#0a879a" stroke-width="1.5" cx="224" cy="-562.6163" rx="60.623" ry="28.0702"/>
<text text-anchor="start" x="198" y="-570.0163" font-family="Helvetica,sans-Serif" font-size="12.00" fill="#000000">DNSKEY</text>
<text text-anchor="start" x="189" y="-559.6163" font-family="Times,serif" font-size="10.00" fill="#000000">alg=8, id=35821</text>
<text text-anchor="start" x="204.5" y="-549.6163" font-family="Times,serif" font-size="10.00" fill="#000000">2048 bits</text>
</g>
<!-- DNSKEY&#45;3|jp|8|35821&#45;&gt;DS&#45;0|jp|8|35821|2 -->
<g id="digest&#45;DNSKEY&#45;3|jp|8|35821|DS&#45;0|jp|8|35821|2|0a879a|solid" class="edge">
<title>DNSKEY&#45;3|jp|8|35821&#45;&gt;DS&#45;0|jp|8|35821|2</title>
<path fill="none" stroke="#0a879a" stroke-width="1.5" d="M231.1998,-601.0386C237.0938,-632.4922 245.2138,-675.8257 250.0046,-701.392"/>
<polygon fill="#0a879a" stroke="#0a879a" stroke-width="1.5" points="234.5763,-600.0543 229.2943,-590.87 227.6961,-601.3436 234.5763,-600.0543"/>
</g>
<!-- DNSKEY&#45;3|jp|8|35821&#45;&gt;cluster_jp_top -->
<!-- DNSKEY&#45;3|jp|8|35821&#45;&gt;DNSKEY&#45;3|jp|8|35821 -->
<g id="RRSIG&#45;DNSKEY&#45;3|jp|8|35821|DNSKEY&#45;3|jp|8|35821|0a879a|solid" class="edge">
<title>DNSKEY&#45;3|jp|8|35821&#45;&gt;DNSKEY&#45;3|jp|8|35821</title>
<path fill="none" stroke="#0a879a" stroke-width="1.5" d="M291.3958,-554.5676C298.3578,-556.1486 302.8112,-558.8315 302.8112,-562.6163 302.8112,-567.9991 293.8032,-571.1531 281.382,-572.0783"/>
<polygon fill="#0a879a" stroke="#0a879a" stroke-width="1.5" points="291.773,-551.0863 281.382,-553.1543 290.7947,-558.0176 291.773,-551.0863"/>
</g>
<!-- DNSKEY&#45;4|jp|8|9570 -->
<g id="DNSKEY&#45;4|jp|8|9570" class="node">
<title>DNSKEY&#45;4|jp|8|9570</title>
<ellipse fill="#ffffff" stroke="#0a879a" stroke-width="1.5" cx="303" cy="-484.0478" rx="56.6372" ry="28.0702"/>
<text text-anchor="start" x="277" y="-491.4478" font-family="Helvetica,sans-Serif" font-size="12.00" fill="#000000">DNSKEY</text>
<text text-anchor="start" x="271" y="-481.0478" font-family="Times,serif" font-size="10.00" fill="#000000">alg=8, id=9570</text>
<text text-anchor="start" x="283.5" y="-471.0478" font-family="Times,serif" font-size="10.00" fill="#000000">1024 bits</text>
</g>
<!-- DNSKEY&#45;4|jp|8|9570&#45;&gt;DNSKEY&#45;3|jp|8|35821 -->
<g id="RRSIG&#45;DNSKEY&#45;4|jp|8|9570|DNSKEY&#45;3|jp|8|35821|0a879a|solid" class="edge">
<title>DNSKEY&#45;4|jp|8|9570&#45;&gt;DNSKEY&#45;3|jp|8|35821</title>
<path fill="none" stroke="#0a879a" stroke-width="1.5" d="M270.3349,-516.5344C263.5306,-523.3016 256.4471,-530.3464 249.9257,-536.8322"/>
<polygon fill="#0a879a" stroke="#0a879a" stroke-width="1.5" points="272.9467,-518.8732 277.5691,-509.3398 268.0105,-513.9099 272.9467,-518.8732"/>
</g>
<!-- DNSKEY&#45;5|jp|8|13611 -->
<g id="DNSKEY&#45;5|jp|8|13611" class="node">
<title>DNSKEY&#45;5|jp|8|13611</title>
<ellipse fill="#ffffff" stroke="#0a879a" stroke-width="1.5" cx="168" cy="-484.0478" rx="60.623" ry="28.0702"/>
<text text-anchor="start" x="142" y="-491.4478" font-family="Helvetica,sans-Serif" font-size="12.00" fill="#000000">DNSKEY</text>
<text text-anchor="start" x="133" y="-481.0478" font-family="Times,serif" font-size="10.00" fill="#000000">alg=8, id=13611</text>
<text text-anchor="start" x="148.5" y="-471.0478" font-family="Times,serif" font-size="10.00" fill="#000000">1024 bits</text>
</g>
<!-- DNSKEY&#45;5|jp|8|13611&#45;&gt;DNSKEY&#45;3|jp|8|35821 -->
<g id="RRSIG&#45;DNSKEY&#45;5|jp|8|13611|DNSKEY&#45;3|jp|8|35821|0a879a|solid" class="edge">
<title>DNSKEY&#45;5|jp|8|13611&#45;&gt;DNSKEY&#45;3|jp|8|35821</title>
<path fill="none" stroke="#0a879a" stroke-width="1.5" d="M193.2227,-519.4355C197.0736,-524.8383 200.9953,-530.3404 204.6925,-535.5276"/>
<polygon fill="#0a879a" stroke="#0a879a" stroke-width="1.5" points="195.9263,-517.1984 187.272,-511.0866 190.226,-521.2613 195.9263,-517.1984"/>
</g>
<!-- DS&#45;1|iij.ad.jp|8|18490|2&#45;&gt;DNSKEY&#45;5|jp|8|13611 -->
<g id="RRSIG&#45;DS&#45;1|iij.ad.jp|8|18490|2|DNSKEY&#45;5|jp|8|13611|0a879a|solid" class="edge">
<title>DS&#45;1|iij.ad.jp|8|18490|2&#45;&gt;DNSKEY&#45;5|jp|8|13611</title>
<path fill="none" stroke="#0a879a" stroke-width="1.5" d="M173.0382,-444.0235C172.5478,-447.919 172.0488,-451.8832 171.5649,-455.7275"/>
<polygon fill="#0a879a" stroke="#0a879a" stroke-width="1.5" points="176.5233,-444.3607 174.2997,-434.0019 169.5781,-443.4864 176.5233,-444.3607"/>
</g>
</g>
</svg>
