<?xml version="1.0" encoding="UTF-8" standalone="no"?>
<!DOCTYPE svg PUBLIC "-//W3C//DTD SVG 1.1//EN"
 "http://www.w3.org/Graphics/SVG/1.1/DTD/svg11.dtd">
<!-- Generated by graphviz version 10.0.1 (20240210.2158)
 -->
<!-- Title: interfaces Pages: 1 -->
<svg width="314pt" height="1047pt"
 viewBox="0.00 0.00 314.00 1046.50" xmlns="http://www.w3.org/2000/svg" xmlns:xlink="http://www.w3.org/1999/xlink">
<g id="graph0" class="graph" transform="scale(1 1) rotate(0) translate(4 1042.5)">
<title>interfaces</title>
<polygon fill="white" stroke="none" points="-4,4 -4,-1042.5 310,-1042.5 310,4 -4,4"/>
<g id="clust1" class="cluster">
<title>cluster_goldenhind</title>
<polygon fill="none" stroke="black" points="8,-8 8,-902.5 298,-902.5 298,-8 8,-8"/>
<text text-anchor="middle" x="153" y="-885.2" font-family="Times,serif" font-size="14.00">goldenhind (bhyve host)</text>
</g>
<g id="clust2" class="cluster">
<title>cluster_mkk</title>
<polygon fill="none" stroke="black" points="16,-555 16,-793 230,-793 230,-555 16,-555"/>
<text text-anchor="middle" x="123" y="-775.7" font-family="Times,serif" font-size="14.00">mkk (bhyve guest)</text>
</g>
<g id="clust3" class="cluster">
<title>cluster_router</title>
<polygon fill="none" stroke="black" points="16,-198.5 16,-449 290,-449 290,-198.5 16,-198.5"/>
<text text-anchor="middle" x="153" y="-431.7" font-family="Times,serif" font-size="14.00">router (bhyve guest)</text>
</g>
<g id="clust4" class="cluster">
<title>cluster_pc</title>
<polygon fill="none" stroke="black" points="19,-16 19,-92.5 125,-92.5 125,-16 19,-16"/>
<text text-anchor="middle" x="72" y="-75.2" font-family="Times,serif" font-size="14.00">pc (bhyve guest)</text>
</g>
<g id="clust5" class="cluster">
<title>cluster_nvr</title>
<polygon fill="none" stroke="black" points="143,-16 143,-92.5 255,-92.5 255,-16 143,-16"/>
<text text-anchor="middle" x="199" y="-75.2" font-family="Times,serif" font-size="14.00">nvr (bhyve guest)</text>
</g>
<!-- internet -->
<g id="node1" class="node">
<title>internet</title>
<ellipse fill="none" stroke="black" cx="123" cy="-1020.5" rx="39.58" ry="18"/>
<text text-anchor="middle" x="123" y="-1015.45" font-family="Times,serif" font-size="14.00">Internet</text>
</g>
<!-- hgw -->
<g id="node2" class="node">
<title>hgw</title>
<polygon fill="none" stroke="black" points="158.75,-965.5 87.25,-965.5 87.25,-929.5 158.75,-929.5 158.75,-965.5"/>
<text text-anchor="middle" x="123" y="-942.45" font-family="Times,serif" font-size="14.00">PR&#45;500KI</text>
</g>
<!-- internet&#45;&#45;hgw -->
<g id="edge1" class="edge">
<title>internet&#45;&#45;hgw</title>
<path fill="none" stroke="black" d="M123,-1002.31C123,-991.15 123,-976.66 123,-965.53"/>
</g>
<!-- gh_bridge2 -->
<g id="node3" class="node">
<title>gh_bridge2</title>
<polygon fill="none" stroke="black" points="103.75,-820.5 103.75,-869.5 200.25,-869.5 200.25,-820.5 103.75,-820.5"/>
<text text-anchor="middle" x="123.38" y="-852.2" font-family="Times,serif" font-size="14.00">igc2</text>
<polyline fill="none" stroke="black" points="103.75,-845 143,-845"/>
<text text-anchor="middle" x="123.38" y="-827.7" font-family="Times,serif" font-size="14.00">tap0</text>
<polyline fill="none" stroke="black" points="143,-820.5 143,-869.5"/>
<text text-anchor="middle" x="171.62" y="-839.95" font-family="Times,serif" font-size="14.00">bridge2</text>
</g>
<!-- hgw&#45;&#45;gh_bridge2 -->
<g id="edge2" class="edge">
<title>hgw&#45;&#45;gh_bridge2:igc2</title>
<path fill="none" stroke="black" d="M123,-929.11C123,-913.8 123,-890.92 123,-871"/>
</g>
<!-- mkk_vtnet0 -->
<g id="node4" class="node">
<title>mkk_vtnet0</title>
<polygon fill="none" stroke="black" points="150,-760.5 96,-760.5 96,-724.5 150,-724.5 150,-760.5"/>
<text text-anchor="middle" x="123" y="-737.45" font-family="Times,serif" font-size="14.00">vtnet0</text>
</g>
<!-- gh_bridge2&#45;&#45;mkk_vtnet0 -->
<g id="edge3" class="edge">
<title>gh_bridge2:tap0&#45;&#45;mkk_vtnet0</title>
<path fill="none" stroke="black" d="M123,-820C123,-799.68 123,-776.32 123,-760.82"/>
</g>
<!-- mkk_routing -->
<g id="node8" class="node">
<title>mkk_routing</title>
<ellipse fill="none" stroke="black" cx="123" cy="-654" rx="37.53" ry="18"/>
<text text-anchor="middle" x="123" y="-648.95" font-family="Times,serif" font-size="14.00">routing</text>
</g>
<!-- mkk_vtnet0&#45;&#45;mkk_routing -->
<g id="edge4" class="edge">
<title>mkk_vtnet0&#45;&#45;mkk_routing</title>
<path fill="none" stroke="black" d="M123,-724.41C123,-709.34 123,-687.49 123,-672.35"/>
<text text-anchor="middle" x="136.12" y="-693.2" font-family="Times,serif" font-size="14.00">NAT</text>
</g>
<!-- mkk_vtnet1 -->
<g id="node5" class="node">
<title>mkk_vtnet1</title>
<polygon fill="none" stroke="black" points="150,-599 96,-599 96,-563 150,-563 150,-599"/>
<text text-anchor="middle" x="123" y="-575.95" font-family="Times,serif" font-size="14.00">vtnet1</text>
</g>
<!-- gh_bridge10 -->
<g id="node9" class="node">
<title>gh_bridge10</title>
<polygon fill="none" stroke="black" points="100,-476.5 100,-525.5 210,-525.5 210,-476.5 100,-476.5"/>
<text text-anchor="middle" x="123" y="-508.2" font-family="Times,serif" font-size="14.00">tap1</text>
<polyline fill="none" stroke="black" points="100,-501 146,-501"/>
<text text-anchor="middle" x="123" y="-483.7" font-family="Times,serif" font-size="14.00">tap10</text>
<polyline fill="none" stroke="black" points="146,-476.5 146,-525.5"/>
<text text-anchor="middle" x="178" y="-495.95" font-family="Times,serif" font-size="14.00">bridge10</text>
</g>
<!-- mkk_vtnet1&#45;&#45;gh_bridge10 -->
<g id="edge8" class="edge">
<title>mkk_vtnet1&#45;&#45;gh_bridge10:tap1</title>
<path fill="none" stroke="black" d="M123,-562.98C123,-552.35 123,-538.38 123,-526"/>
</g>
<!-- mkk_ng0 -->
<g id="node6" class="node">
<title>mkk_ng0</title>
<polygon fill="none" stroke="black" points="78,-599 24,-599 24,-563 78,-563 78,-599"/>
<text text-anchor="middle" x="51" y="-575.95" font-family="Times,serif" font-size="14.00">ng0</text>
</g>
<!-- rt_ng0 -->
<g id="node11" class="node">
<title>rt_ng0</title>
<polygon fill="none" stroke="black" points="78,-409.5 24,-409.5 24,-373.5 78,-373.5 78,-409.5"/>
<text text-anchor="middle" x="51" y="-386.45" font-family="Times,serif" font-size="14.00">ng0</text>
</g>
<!-- mkk_ng0&#45;&#45;rt_ng0 -->
<g id="edge10" class="edge">
<title>mkk_ng0&#45;&#45;rt_ng0</title>
<path fill="none" stroke="black" d="M36.39,-562.78C28.85,-552.75 20.43,-539.45 16.5,-526 4.42,-484.64 26.38,-435.44 40.49,-409.88"/>
<text text-anchor="middle" x="35.75" y="-495.95" font-family="Times,serif" font-size="14.00">PPPoE</text>
</g>
<!-- mkk_gif0 -->
<g id="node7" class="node">
<title>mkk_gif0</title>
<polygon fill="none" stroke="black" points="222,-599 168,-599 168,-563 222,-563 222,-599"/>
<text text-anchor="middle" x="195" y="-575.95" font-family="Times,serif" font-size="14.00">gif0</text>
</g>
<!-- rt_gif0 -->
<g id="node12" class="node">
<title>rt_gif0</title>
<polygon fill="none" stroke="black" points="282,-409.5 228,-409.5 228,-373.5 282,-373.5 282,-409.5"/>
<text text-anchor="middle" x="255" y="-386.45" font-family="Times,serif" font-size="14.00">gif0</text>
</g>
<!-- mkk_gif0&#45;&#45;rt_gif0 -->
<g id="edge11" class="edge">
<title>mkk_gif0&#45;&#45;rt_gif0</title>
<path fill="none" stroke="black" d="M222.42,-564.9C229.64,-559.57 236.62,-552.9 241,-545 265.22,-501.28 261.42,-439.53 257.69,-409.81"/>
<text text-anchor="middle" x="280.75" y="-495.95" font-family="Times,serif" font-size="14.00">DS&#45;Lite</text>
</g>
<!-- mkk_routing&#45;&#45;mkk_vtnet1 -->
<g id="edge5" class="edge">
<title>mkk_routing&#45;&#45;mkk_vtnet1</title>
<path fill="none" stroke="black" d="M123,-635.81C123,-624.65 123,-610.16 123,-599.03"/>
</g>
<!-- mkk_routing&#45;&#45;mkk_ng0 -->
<g id="edge6" class="edge">
<title>mkk_routing&#45;&#45;mkk_ng0</title>
<path fill="none" stroke="black" d="M107.02,-637.24C95.67,-626.05 80.42,-611.01 68.7,-599.46"/>
</g>
<!-- mkk_routing&#45;&#45;mkk_gif0 -->
<g id="edge7" class="edge">
<title>mkk_routing&#45;&#45;mkk_gif0</title>
<path fill="none" stroke="black" d="M138.98,-637.24C150.33,-626.05 165.58,-611.01 177.3,-599.46"/>
</g>
<!-- rt_bridge0 -->
<g id="node13" class="node">
<title>rt_bridge0</title>
<polygon fill="none" stroke="black" points="96.5,-367 96.5,-416 209.5,-416 209.5,-367 96.5,-367"/>
<text text-anchor="middle" x="124.38" y="-398.7" font-family="Times,serif" font-size="14.00">vtnet0</text>
<polyline fill="none" stroke="black" points="96.5,-391.5 152.25,-391.5"/>
<text text-anchor="middle" x="124.38" y="-374.2" font-family="Times,serif" font-size="14.00">epair0a</text>
<polyline fill="none" stroke="black" points="152.25,-367 152.25,-416"/>
<text text-anchor="middle" x="180.88" y="-386.45" font-family="Times,serif" font-size="14.00">bridge0</text>
</g>
<!-- gh_bridge10&#45;&#45;rt_bridge0 -->
<g id="edge9" class="edge">
<title>gh_bridge10:tap10&#45;&#45;rt_bridge0:vtnet0</title>
<path fill="none" stroke="black" d="M123,-476C123,-450 124,-443.5 124,-417.5"/>
</g>
<!-- rt_vtnet1 -->
<g id="node10" class="node">
<title>rt_vtnet1</title>
<polygon fill="none" stroke="black" points="93,-249.5 39,-249.5 39,-213.5 93,-213.5 93,-249.5"/>
<text text-anchor="middle" x="66" y="-226.45" font-family="Times,serif" font-size="14.00">vtnet1</text>
</g>
<!-- gh_bridge20 -->
<g id="node16" class="node">
<title>gh_bridge20</title>
<polygon fill="none" stroke="black" points="36,-120 36,-169 146,-169 146,-120 36,-120"/>
<text text-anchor="middle" x="59" y="-151.7" font-family="Times,serif" font-size="14.00">tap11</text>
<polyline fill="none" stroke="black" points="36,-144.5 82,-144.5"/>
<text text-anchor="middle" x="59" y="-127.2" font-family="Times,serif" font-size="14.00">tap20</text>
<polyline fill="none" stroke="black" points="82,-120 82,-169"/>
<text text-anchor="middle" x="114" y="-139.45" font-family="Times,serif" font-size="14.00">bridge20</text>
</g>
<!-- rt_vtnet1&#45;&#45;gh_bridge20 -->
<g id="edge17" class="edge">
<title>rt_vtnet1&#45;&#45;gh_bridge20:tap11</title>
<path fill="none" stroke="black" d="M62.95,-213.21C61.06,-201.03 59,-184.32 59,-169.5"/>
</g>
<!-- rt_routing -->
<g id="node15" class="node">
<title>rt_routing</title>
<ellipse fill="none" stroke="black" cx="87" cy="-311.5" rx="37.53" ry="18"/>
<text text-anchor="middle" x="87" y="-306.45" font-family="Times,serif" font-size="14.00">routing</text>
</g>
<!-- rt_ng0&#45;&#45;rt_routing -->
<g id="edge13" class="edge">
<title>rt_ng0&#45;&#45;rt_routing</title>
<path fill="none" stroke="black" d="M58.99,-373.19C65,-360.17 73.19,-342.43 79.16,-329.49"/>
</g>
<!-- rt_gif0&#45;&#45;rt_routing -->
<g id="edge14" class="edge">
<title>rt_gif0&#45;&#45;rt_routing</title>
<path fill="none" stroke="black" d="M230.22,-373.06C226.53,-370.73 222.72,-368.47 219,-366.5 185.21,-348.56 144.13,-332.6 116.86,-322.77"/>
</g>
<!-- rt_bridge2 -->
<g id="node14" class="node">
<title>rt_bridge2</title>
<polygon fill="none" stroke="black" points="133.12,-207 133.12,-256 246.88,-256 246.88,-207 133.12,-207"/>
<text text-anchor="middle" x="161.38" y="-238.7" font-family="Times,serif" font-size="14.00">epair0b</text>
<polyline fill="none" stroke="black" points="133.12,-231.5 189.62,-231.5"/>
<text text-anchor="middle" x="161.38" y="-214.2" font-family="Times,serif" font-size="14.00">vtnet2</text>
<polyline fill="none" stroke="black" points="189.62,-207 189.62,-256"/>
<text text-anchor="middle" x="218.25" y="-226.45" font-family="Times,serif" font-size="14.00">bridge2</text>
</g>
<!-- rt_bridge0&#45;&#45;rt_bridge2 -->
<g id="edge19" class="edge">
<title>rt_bridge0:epair0a&#45;&#45;rt_bridge2:epair0b</title>
<path fill="none" stroke="black" d="M124,-366.5C124,-340.71 161,-282.29 161,-256.5"/>
<text text-anchor="middle" x="192.5" y="-306.45" font-family="Times,serif" font-size="14.00">IPv4+ARP only</text>
</g>
<!-- rt_bridge0&#45;&#45;rt_routing -->
<g id="edge12" class="edge">
<title>rt_bridge0:vtnet0&#45;&#45;rt_routing</title>
<path fill="none" stroke="black" d="M95,-403.5C87.66,-403.5 86.75,-355.98 86.81,-329.62"/>
</g>
<!-- gh_bridge30 -->
<g id="node18" class="node">
<title>gh_bridge30</title>
<polygon fill="none" stroke="black" points="164,-120 164,-169 274,-169 274,-120 164,-120"/>
<text text-anchor="middle" x="187" y="-151.7" font-family="Times,serif" font-size="14.00">tap12</text>
<polyline fill="none" stroke="black" points="164,-144.5 210,-144.5"/>
<text text-anchor="middle" x="187" y="-127.2" font-family="Times,serif" font-size="14.00">tap30</text>
<polyline fill="none" stroke="black" points="210,-120 210,-169"/>
<text text-anchor="middle" x="242" y="-139.45" font-family="Times,serif" font-size="14.00">bridge30</text>
</g>
<!-- rt_bridge2&#45;&#45;gh_bridge30 -->
<g id="edge20" class="edge">
<title>rt_bridge2:vtnet2&#45;&#45;gh_bridge30:tap12</title>
<path fill="none" stroke="black" d="M161,-205.5C161,-185.76 187,-189.24 187,-169.5"/>
</g>
<!-- rt_routing&#45;&#45;rt_vtnet1 -->
<g id="edge15" class="edge">
<title>rt_routing&#45;&#45;rt_vtnet1</title>
<path fill="none" stroke="black" d="M82.34,-293.19C78.86,-280.26 74.12,-262.68 70.65,-249.76"/>
</g>
<!-- rt_routing&#45;&#45;rt_bridge2 -->
<g id="edge16" class="edge">
<title>rt_routing&#45;&#45;rt_bridge2:vtnet2</title>
<path fill="none" stroke="black" d="M91.7,-293.38C99.46,-267.02 115.7,-219.5 132,-219.5"/>
</g>
<!-- pc_vtnet0 -->
<g id="node17" class="node">
<title>pc_vtnet0</title>
<polygon fill="none" stroke="black" points="86,-60 32,-60 32,-24 86,-24 86,-60"/>
<text text-anchor="middle" x="59" y="-36.95" font-family="Times,serif" font-size="14.00">vtnet0</text>
</g>
<!-- gh_bridge20&#45;&#45;pc_vtnet0 -->
<g id="edge18" class="edge">
<title>gh_bridge20:tap20&#45;&#45;pc_vtnet0</title>
<path fill="none" stroke="black" d="M59,-119.5C59,-99.18 59,-75.82 59,-60.32"/>
</g>
<!-- nvr_vtnet0 -->
<g id="node19" class="node">
<title>nvr_vtnet0</title>
<polygon fill="none" stroke="black" points="214,-60 160,-60 160,-24 214,-24 214,-60"/>
<text text-anchor="middle" x="187" y="-36.95" font-family="Times,serif" font-size="14.00">vtnet0</text>
</g>
<!-- gh_bridge30&#45;&#45;nvr_vtnet0 -->
<g id="edge21" class="edge">
<title>gh_bridge30:tap30&#45;&#45;nvr_vtnet0</title>
<path fill="none" stroke="black" d="M187,-119.5C187,-99.18 187,-75.82 187,-60.32"/>
</g>
</g>
</svg>
