<?xml version="1.0" encoding="UTF-8" standalone="no"?>
<!DOCTYPE svg PUBLIC "-//W3C//DTD SVG 1.1//EN"
 "http://www.w3.org/Graphics/SVG/1.1/DTD/svg11.dtd">
<!-- Generated by graphviz version 10.0.1 (20240210.2158)
 -->
<!-- Title: interfaces Pages: 1 -->
<svg width="782pt" height="1454pt"
 viewBox="0.00 0.00 782.50 1453.91" xmlns="http://www.w3.org/2000/svg" xmlns:xlink="http://www.w3.org/1999/xlink">
<g id="graph0" class="graph" transform="scale(1 1) rotate(0) translate(4 1449.91)">
<title>interfaces</title>
<polygon fill="white" stroke="none" points="-4,4 -4,-1449.91 778.5,-1449.91 778.5,4 -4,4"/>
<g id="clust1" class="cluster">
<title>cluster_hgw</title>
<polygon fill="none" stroke="black" points="344.26,-1211.43 344.26,-1382.91 558.26,-1382.91 558.26,-1211.43 344.26,-1211.43"/>
<text text-anchor="middle" x="451.26" y="-1365.61" font-family="Times,serif" font-size="14.00">Home Gateway</text>
</g>
<g id="clust4" class="cluster">
<title>cluster_mkk</title>
<polygon fill="none" stroke="black" points="173.26,-727.47 173.26,-1103.93 578.26,-1103.93 578.26,-727.47 173.26,-727.47"/>
<text text-anchor="middle" x="375.76" y="-1086.63" font-family="Times,serif" font-size="14.00">mkk</text>
</g>
<g id="clust8" class="cluster">
<title>cluster_router</title>
<polygon fill="none" stroke="black" points="133.26,-207.5 133.26,-604.47 467.26,-604.47 467.26,-207.5 133.26,-207.5"/>
<text text-anchor="middle" x="300.26" y="-587.17" font-family="Times,serif" font-size="14.00">router</text>
</g>
<g id="clust12" class="cluster">
<title>cluster_pc</title>
<polygon fill="none" stroke="black" points="197.26,-8 197.26,-84.5 341.26,-84.5 341.26,-8 197.26,-8"/>
<text text-anchor="middle" x="269.26" y="-67.2" font-family="Times,serif" font-size="14.00">pc</text>
</g>
<g id="clust13" class="cluster">
<title>cluster_nvr</title>
<polygon fill="none" stroke="black" points="580.26,-8 580.26,-84.5 724.26,-84.5 724.26,-8 580.26,-8"/>
<text text-anchor="middle" x="652.26" y="-67.2" font-family="Times,serif" font-size="14.00">nvr</text>
</g>
<!-- internet -->
<g id="node1" class="node">
<title>internet</title>
<ellipse fill="none" stroke="black" cx="438.26" cy="-1427.91" rx="39.58" ry="18"/>
<text text-anchor="middle" x="438.26" y="-1422.86" font-family="Times,serif" font-size="14.00">Internet</text>
</g>
<!-- hgw_routing4 -->
<g id="node2" class="node">
<title>hgw_routing4</title>
<ellipse fill="none" stroke="black" cx="391.26" cy="-1321.42" rx="38.89" ry="28.99"/>
<text text-anchor="middle" x="391.26" y="-1324.62" font-family="Times,serif" font-size="14.00">IPv4</text>
<text text-anchor="middle" x="391.26" y="-1308.12" font-family="Times,serif" font-size="14.00">routing</text>
</g>
<!-- internet&#45;&#45;hgw_routing4 -->
<g id="edge5" class="edge">
<title>internet&#45;&#45;hgw_routing4</title>
<path fill="none" stroke="black" stroke-dasharray="5,2" d="M430.71,-1410.13C423.34,-1393.74 412.01,-1368.55 403.38,-1349.36"/>
</g>
<!-- hgw_routing6 -->
<g id="node3" class="node">
<title>hgw_routing6</title>
<ellipse fill="none" stroke="black" cx="487.26" cy="-1321.42" rx="38.89" ry="28.99"/>
<text text-anchor="middle" x="487.26" y="-1324.62" font-family="Times,serif" font-size="14.00">IPv6</text>
<text text-anchor="middle" x="487.26" y="-1308.12" font-family="Times,serif" font-size="14.00">routing</text>
</g>
<!-- internet&#45;&#45;hgw_routing6 -->
<g id="edge30" class="edge">
<title>internet&#45;&#45;hgw_routing6</title>
<path fill="none" stroke="black" stroke-dasharray="1,5" d="M446.14,-1410.13C453.87,-1393.63 465.8,-1368.19 474.82,-1348.96"/>
</g>
<!-- hgw_dhcp4s -->
<g id="node4" class="node">
<title>hgw_dhcp4s</title>
<polygon fill="none" stroke="black" points="406.39,-1255.43 364.14,-1255.43 364.14,-1259.43 352.14,-1259.43 352.14,-1219.43 406.39,-1219.43 406.39,-1255.43"/>
<polyline fill="none" stroke="black" points="352.14,-1255.43 364.14,-1255.43"/>
<text text-anchor="middle" x="379.26" y="-1232.38" font-family="Times,serif" font-size="14.00">dhcp4s</text>
</g>
<!-- hgw_routing4&#45;&#45;hgw_dhcp4s -->
<!-- lan4 -->
<g id="node7" class="node">
<title>lan4</title>
<ellipse fill="none" stroke="black" cx="281.26" cy="-1164.43" rx="60.05" ry="18"/>
<text text-anchor="middle" x="281.26" y="-1159.38" font-family="Times,serif" font-size="14.00">192.168.1/24</text>
</g>
<!-- hgw_routing4&#45;&#45;lan4 -->
<g id="edge6" class="edge">
<title>hgw_routing4&#45;&#45;lan4</title>
<path fill="none" stroke="black" stroke-dasharray="5,2" d="M352.08,-1320.95C303.94,-1319.2 224.18,-1307.95 187.51,-1255.43 176.32,-1239.4 177.17,-1228.03 187.51,-1211.43 198.25,-1194.2 217.54,-1183.24 235.84,-1176.36"/>
<text text-anchor="middle" x="191.64" y="-1232.38" font-family="Times,serif" font-size="14.00">1</text>
</g>
<!-- lan6 -->
<g id="node8" class="node">
<title>lan6</title>
<ellipse fill="none" stroke="black" cx="451.26" cy="-1164.43" rx="76.43" ry="18"/>
<text text-anchor="middle" x="451.26" y="-1159.38" font-family="Times,serif" font-size="14.00">24xx:xx:xx:xx/64</text>
</g>
<!-- hgw_routing6&#45;&#45;lan6 -->
<g id="edge31" class="edge">
<title>hgw_routing6&#45;&#45;lan6</title>
<path fill="none" stroke="black" stroke-dasharray="1,5" d="M458.66,-1301.45C452.46,-1298 445.81,-1294.77 439.26,-1292.43 390.15,-1274.89 241.36,-1295.11 207.51,-1255.43 194.82,-1240.55 195.03,-1226.49 207.51,-1211.43 210.47,-1207.86 319.8,-1188.27 391.02,-1175.83"/>
<text text-anchor="middle" x="276.14" y="-1232.38" font-family="Times,serif" font-size="14.00">fe80::225:36ff:fe43:83a5</text>
</g>
<!-- hgw_dhcp4s&#45;&#45;lan4 -->
<g id="edge7" class="edge">
<title>hgw_dhcp4s&#45;&#45;lan4</title>
<path fill="none" stroke="black" stroke-dasharray="5,2" d="M355.29,-1219.06C339.42,-1207.57 318.77,-1192.61 303.32,-1181.41"/>
</g>
<!-- hgw_rtadvd -->
<g id="node5" class="node">
<title>hgw_rtadvd</title>
<polygon fill="none" stroke="black" points="478.26,-1255.43 436.26,-1255.43 436.26,-1259.43 424.26,-1259.43 424.26,-1219.43 478.26,-1219.43 478.26,-1255.43"/>
<polyline fill="none" stroke="black" points="424.26,-1255.43 436.26,-1255.43"/>
<text text-anchor="middle" x="451.26" y="-1232.38" font-family="Times,serif" font-size="14.00">rtadvd</text>
</g>
<!-- hgw_rtadvd&#45;&#45;lan6 -->
<g id="edge32" class="edge">
<title>hgw_rtadvd&#45;&#45;lan6</title>
<path fill="none" stroke="black" stroke-dasharray="1,5" d="M451.26,-1219.24C451.26,-1208.08 451.26,-1193.59 451.26,-1182.46"/>
</g>
<!-- hgw_dhcp6s -->
<g id="node6" class="node">
<title>hgw_dhcp6s</title>
<polygon fill="none" stroke="black" points="550.39,-1255.43 508.14,-1255.43 508.14,-1259.43 496.14,-1259.43 496.14,-1219.43 550.39,-1219.43 550.39,-1255.43"/>
<polyline fill="none" stroke="black" points="496.14,-1255.43 508.14,-1255.43"/>
<text text-anchor="middle" x="523.26" y="-1232.38" font-family="Times,serif" font-size="14.00">dhcp6s</text>
</g>
<!-- hgw_dhcp6s&#45;&#45;lan6 -->
<g id="edge33" class="edge">
<title>hgw_dhcp6s&#45;&#45;lan6</title>
<path fill="none" stroke="black" stroke-dasharray="1,5" d="M505.84,-1219.24C494.35,-1207.92 479.39,-1193.16 468.04,-1181.97"/>
</g>
<!-- mkk_pf -->
<g id="node9" class="node">
<title>mkk_pf</title>
<polygon fill="none" stroke="black" points="363.89,-1071.43 318.64,-1071.43 318.64,-1075.43 306.64,-1075.43 306.64,-1035.43 363.89,-1035.43 363.89,-1071.43"/>
<polyline fill="none" stroke="black" points="306.64,-1071.43 318.64,-1071.43"/>
<text text-anchor="middle" x="335.26" y="-1048.38" font-family="Times,serif" font-size="14.00">pf NAT</text>
</g>
<!-- lan4&#45;&#45;mkk_pf -->
<g id="edge8" class="edge">
<title>lan4&#45;&#45;mkk_pf</title>
<path fill="none" stroke="black" stroke-dasharray="5,2" d="M286.4,-1146.37C289.72,-1136.16 294.4,-1123.06 299.76,-1111.93 306.54,-1097.87 315.85,-1082.9 323.24,-1071.76"/>
<text text-anchor="middle" x="307.01" y="-1115.13" font-family="Times,serif" font-size="14.00">72</text>
</g>
<!-- mkk_dhcp4c -->
<g id="node10" class="node">
<title>mkk_dhcp4c</title>
<polygon fill="none" stroke="black" points="288.76,-1071.43 245.76,-1071.43 245.76,-1075.43 233.76,-1075.43 233.76,-1035.43 288.76,-1035.43 288.76,-1071.43"/>
<polyline fill="none" stroke="black" points="233.76,-1071.43 245.76,-1071.43"/>
<text text-anchor="middle" x="261.26" y="-1048.38" font-family="Times,serif" font-size="14.00">dhcp4c</text>
</g>
<!-- lan4&#45;&#45;mkk_dhcp4c -->
<g id="edge9" class="edge">
<title>lan4&#45;&#45;mkk_dhcp4c</title>
<path fill="none" stroke="black" stroke-dasharray="5,2" d="M278.14,-1146.4C274.4,-1126.04 268.19,-1092.17 264.43,-1071.7"/>
</g>
<!-- lan6&#45;&#45;mkk_pf -->
<g id="edge36" class="edge">
<title>lan6&#45;&#45;mkk_pf</title>
<path fill="none" stroke="black" stroke-dasharray="1,5" d="M381.16,-1156.85C363.73,-1151.7 346.92,-1142.99 336.01,-1128.43 323.92,-1112.29 326.38,-1088.11 330.09,-1071.83"/>
<text text-anchor="middle" x="385.89" y="-1115.13" font-family="Times,serif" font-size="14.00">:2a0:98ff:fe27:fdff</text>
</g>
<!-- mkk_rtsold -->
<g id="node11" class="node">
<title>mkk_rtsold</title>
<polygon fill="none" stroke="black" points="457.26,-1071.43 415.26,-1071.43 415.26,-1075.43 403.26,-1075.43 403.26,-1035.43 457.26,-1035.43 457.26,-1071.43"/>
<polyline fill="none" stroke="black" points="403.26,-1071.43 415.26,-1071.43"/>
<text text-anchor="middle" x="430.26" y="-1048.38" font-family="Times,serif" font-size="14.00">rtsold</text>
</g>
<!-- lan6&#45;&#45;mkk_rtsold -->
<g id="edge34" class="edge">
<title>lan6&#45;&#45;mkk_rtsold</title>
<path fill="none" stroke="black" stroke-dasharray="1,5" d="M447.98,-1146.4C444.06,-1126.04 437.53,-1092.17 433.59,-1071.7"/>
</g>
<!-- mkk_dhcp6c -->
<g id="node12" class="node">
<title>mkk_dhcp6c</title>
<polygon fill="none" stroke="black" points="530.76,-1071.43 487.76,-1071.43 487.76,-1075.43 475.76,-1075.43 475.76,-1035.43 530.76,-1035.43 530.76,-1071.43"/>
<polyline fill="none" stroke="black" points="475.76,-1071.43 487.76,-1071.43"/>
<text text-anchor="middle" x="503.26" y="-1048.38" font-family="Times,serif" font-size="14.00">dhcp6c</text>
</g>
<!-- lan6&#45;&#45;mkk_dhcp6c -->
<g id="edge35" class="edge">
<title>lan6&#45;&#45;mkk_dhcp6c</title>
<path fill="none" stroke="black" stroke-dasharray="1,5" d="M459.39,-1146.4C469.1,-1126.04 485.26,-1092.17 495.03,-1071.7"/>
</g>
<!-- mkk_routing4 -->
<g id="node13" class="node">
<title>mkk_routing4</title>
<ellipse fill="none" stroke="black" cx="292.26" cy="-969.44" rx="38.89" ry="28.99"/>
<text text-anchor="middle" x="292.26" y="-972.64" font-family="Times,serif" font-size="14.00">IPv4</text>
<text text-anchor="middle" x="292.26" y="-956.14" font-family="Times,serif" font-size="14.00">routing</text>
</g>
<!-- mkk_pf&#45;&#45;mkk_routing4 -->
<g id="edge10" class="edge">
<title>mkk_pf&#45;&#45;mkk_routing4</title>
<path fill="none" stroke="black" stroke-dasharray="5,2" d="M326.15,-1035.04C320.33,-1023.95 312.67,-1009.36 306.11,-996.85"/>
</g>
<!-- mkk_routing6 -->
<g id="node14" class="node">
<title>mkk_routing6</title>
<ellipse fill="none" stroke="black" cx="292.26" cy="-764.46" rx="38.89" ry="28.99"/>
<text text-anchor="middle" x="292.26" y="-767.66" font-family="Times,serif" font-size="14.00">IPv6</text>
<text text-anchor="middle" x="292.26" y="-751.16" font-family="Times,serif" font-size="14.00">routing</text>
</g>
<!-- mkk_pf&#45;&#45;mkk_routing6 -->
<g id="edge37" class="edge">
<title>mkk_pf&#45;&#45;mkk_routing6</title>
<path fill="none" stroke="black" stroke-dasharray="1,5" d="M338.46,-1035.15C344.45,-999.15 355.14,-913.81 336.26,-845.95 330.76,-826.16 319.63,-805.87 309.94,-790.62"/>
</g>
<!-- mkk_dhcp4s -->
<g id="node15" class="node">
<title>mkk_dhcp4s</title>
<polygon fill="none" stroke="black" points="570.39,-782.46 528.14,-782.46 528.14,-786.46 516.14,-786.46 516.14,-746.46 570.39,-746.46 570.39,-782.46"/>
<polyline fill="none" stroke="black" points="516.14,-782.46 528.14,-782.46"/>
<text text-anchor="middle" x="543.26" y="-759.41" font-family="Times,serif" font-size="14.00">dhcp4s</text>
</g>
<!-- mkk_routing4&#45;&#45;mkk_dhcp4s -->
<!-- mkk_pppoes -->
<g id="node16" class="node">
<title>mkk_pppoes</title>
<polygon fill="none" stroke="black" points="239.26,-903.45 197.26,-903.45 197.26,-907.45 185.26,-907.45 185.26,-845.95 239.26,-845.95 239.26,-903.45"/>
<polyline fill="none" stroke="black" points="185.26,-903.45 197.26,-903.45"/>
<text text-anchor="middle" x="212.26" y="-886.15" font-family="Times,serif" font-size="14.00">PPPoE</text>
<text text-anchor="middle" x="212.26" y="-869.65" font-family="Times,serif" font-size="14.00">server</text>
<text text-anchor="middle" x="212.26" y="-853.15" font-family="Times,serif" font-size="14.00">mpd5</text>
</g>
<!-- mkk_routing4&#45;&#45;mkk_pppoes -->
<g id="edge11" class="edge">
<title>mkk_routing4&#45;&#45;mkk_pppoes</title>
<path fill="none" stroke="black" stroke-dasharray="5,2" d="M271.66,-944.56C260.92,-932.11 247.72,-916.8 236.49,-903.78"/>
</g>
<!-- mkk_dslites -->
<g id="node17" class="node">
<title>mkk_dslites</title>
<polygon fill="none" stroke="black" points="327.26,-903.45 269.26,-903.45 269.26,-907.45 257.26,-907.45 257.26,-845.95 327.26,-845.95 327.26,-903.45"/>
<polyline fill="none" stroke="black" points="257.26,-903.45 269.26,-903.45"/>
<text text-anchor="middle" x="292.26" y="-886.15" font-family="Times,serif" font-size="14.00">DS&#45;Lite</text>
<text text-anchor="middle" x="292.26" y="-869.65" font-family="Times,serif" font-size="14.00">gif tunnel</text>
<text text-anchor="middle" x="292.26" y="-853.15" font-family="Times,serif" font-size="14.00">(4 over 6)</text>
</g>
<!-- mkk_routing4&#45;&#45;mkk_dslites -->
<g id="edge13" class="edge">
<title>mkk_routing4&#45;&#45;mkk_dslites</title>
<path fill="none" stroke="black" stroke-dasharray="5,2" d="M292.26,-940.11C292.26,-928.6 292.26,-915.34 292.26,-903.85"/>
</g>
<!-- onu4 -->
<g id="node21" class="node">
<title>onu4</title>
<ellipse fill="none" stroke="black" cx="543.26" cy="-664.97" rx="46.23" ry="18"/>
<text text-anchor="middle" x="543.26" y="-659.92" font-family="Times,serif" font-size="14.00">10.3.3/24</text>
</g>
<!-- mkk_routing4&#45;&#45;onu4 -->
<g id="edge15" class="edge">
<title>mkk_routing4&#45;&#45;onu4</title>
<path fill="none" stroke="black" stroke-dasharray="5,2" d="M328.91,-959.08C393.71,-940.3 526.6,-891.19 579.26,-793.45 593.17,-767.63 586.94,-755.77 579.26,-727.47 574.8,-710.99 564.68,-694.4 556.31,-682.62"/>
<text text-anchor="middle" x="569.64" y="-814.65" font-family="Times,serif" font-size="14.00">1</text>
</g>
<!-- mkk_rtadvd -->
<g id="node18" class="node">
<title>mkk_rtadvd</title>
<polygon fill="none" stroke="black" points="420.26,-782.46 378.26,-782.46 378.26,-786.46 366.26,-786.46 366.26,-746.46 420.26,-746.46 420.26,-782.46"/>
<polyline fill="none" stroke="black" points="366.26,-782.46 378.26,-782.46"/>
<text text-anchor="middle" x="393.26" y="-759.41" font-family="Times,serif" font-size="14.00">rtadvd</text>
</g>
<!-- mkk_routing6&#45;&#45;mkk_rtadvd -->
<!-- onu6 -->
<g id="node22" class="node">
<title>onu6</title>
<ellipse fill="none" stroke="black" cx="391.26" cy="-664.97" rx="87.69" ry="18"/>
<text text-anchor="middle" x="391.26" y="-659.92" font-family="Times,serif" font-size="14.00">2001:db8:cafe:0::/64</text>
</g>
<!-- mkk_routing6&#45;&#45;onu6 -->
<g id="edge40" class="edge">
<title>mkk_routing6&#45;&#45;onu6</title>
<path fill="none" stroke="black" stroke-dasharray="1,5" d="M278.02,-737.12C273.61,-725.12 271.65,-711.32 279.26,-700.97 288.56,-688.33 302.39,-680.13 317.2,-674.83"/>
<text text-anchor="middle" x="333.26" y="-704.17" font-family="Times,serif" font-size="14.00">:2a0:98ff:fe29:5561</text>
</g>
<!-- mkk_dhcp4s&#45;&#45;onu4 -->
<g id="edge16" class="edge">
<title>mkk_dhcp4s&#45;&#45;onu4</title>
<path fill="none" stroke="black" stroke-dasharray="5,2" d="M543.26,-746.03C543.26,-728.28 543.26,-700.93 543.26,-683.24"/>
</g>
<!-- mkk_pppoes&#45;&#45;mkk_routing6 -->
<g id="edge38" class="edge">
<title>mkk_pppoes&#45;&#45;mkk_routing6</title>
<path fill="none" stroke="black" stroke-dasharray="1,5" d="M233.07,-845.54C245.76,-828.38 261.82,-806.65 274.01,-790.16"/>
</g>
<!-- pppoe4 -->
<g id="node23" class="node">
<title>pppoe4</title>
<ellipse fill="none" stroke="black" cx="69.26" cy="-664.97" rx="69.26" ry="18"/>
<text text-anchor="middle" x="69.26" y="-659.92" font-family="Times,serif" font-size="14.00">192.168.111/30</text>
</g>
<!-- mkk_pppoes&#45;&#45;pppoe4 -->
<g id="edge12" class="edge">
<title>mkk_pppoes&#45;&#45;pppoe4</title>
<path fill="none" stroke="black" stroke-dasharray="5,2" d="M187.05,-845.58C174.06,-830.56 158.3,-811.49 145.51,-793.45 118.68,-755.57 91.88,-707.93 78.34,-682.99"/>
<text text-anchor="middle" x="149.64" y="-759.41" font-family="Times,serif" font-size="14.00">1</text>
</g>
<!-- mkk_dslites&#45;&#45;mkk_routing6 -->
<g id="edge39" class="edge">
<title>mkk_dslites&#45;&#45;mkk_routing6</title>
<path fill="none" stroke="black" stroke-dasharray="1,5" d="M292.26,-845.54C292.26,-829.63 292.26,-809.8 292.26,-793.85"/>
</g>
<!-- dslite4 -->
<g id="node24" class="node">
<title>dslite4</title>
<ellipse fill="none" stroke="black" cx="221.26" cy="-664.97" rx="64.66" ry="18"/>
<text text-anchor="middle" x="221.26" y="-659.92" font-family="Times,serif" font-size="14.00">192.168.99/30</text>
</g>
<!-- mkk_dslites&#45;&#45;dslite4 -->
<g id="edge14" class="edge">
<title>mkk_dslites&#45;&#45;dslite4</title>
<path fill="none" stroke="black" stroke-dasharray="5,2" d="M257.02,-851.45C219.57,-827.81 165.68,-793.75 165.51,-793.45 151.37,-767.76 154.96,-754.83 165.51,-727.47 172.47,-709.45 187.41,-693.44 200.08,-682.28"/>
<text text-anchor="middle" x="169.64" y="-759.41" font-family="Times,serif" font-size="14.00">1</text>
</g>
<!-- mkk_rtadvd&#45;&#45;onu6 -->
<g id="edge41" class="edge">
<title>mkk_rtadvd&#45;&#45;onu6</title>
<path fill="none" stroke="black" stroke-dasharray="1,5" d="M392.91,-746.03C392.54,-728.28 391.98,-700.93 391.62,-683.24"/>
</g>
<!-- mkk_dhcp6s -->
<g id="node19" class="node">
<title>mkk_dhcp6s</title>
<polygon fill="none" stroke="black" points="235.39,-782.46 193.14,-782.46 193.14,-786.46 181.14,-786.46 181.14,-746.46 235.39,-746.46 235.39,-782.46"/>
<polyline fill="none" stroke="black" points="181.14,-782.46 193.14,-782.46"/>
<text text-anchor="middle" x="208.26" y="-759.41" font-family="Times,serif" font-size="14.00">dhcp6s</text>
</g>
<!-- mkk_dhcp6s&#45;&#45;onu6 -->
<g id="edge42" class="edge">
<title>mkk_dhcp6s&#45;&#45;onu6</title>
<path fill="none" stroke="black" stroke-dasharray="1,5" d="M221.21,-746.2C232.65,-732.11 250.55,-712.66 270.26,-700.97 287.85,-690.53 308.73,-683.05 328.15,-677.76"/>
</g>
<!-- mkk_resolver -->
<g id="node20" class="node">
<title>mkk_resolver</title>
<polygon fill="none" stroke="black" points="498.01,-784.96 450.51,-784.96 450.51,-788.96 438.51,-788.96 438.51,-743.96 498.01,-743.96 498.01,-784.96"/>
<polyline fill="none" stroke="black" points="438.51,-784.96 450.51,-784.96"/>
<text text-anchor="middle" x="468.26" y="-767.66" font-family="Times,serif" font-size="14.00">DNS</text>
<text text-anchor="middle" x="468.26" y="-751.16" font-family="Times,serif" font-size="14.00">resolver</text>
</g>
<!-- mkk_resolver&#45;&#45;onu4 -->
<g id="edge17" class="edge">
<title>mkk_resolver&#45;&#45;onu4</title>
<path fill="none" stroke="black" stroke-dasharray="5,2" d="M483.44,-743.73C497.22,-725.81 517.33,-699.67 530.36,-682.74"/>
</g>
<!-- mkk_resolver&#45;&#45;onu6 -->
<g id="edge43" class="edge">
<title>mkk_resolver&#45;&#45;onu6</title>
<path fill="none" stroke="black" stroke-dasharray="1,5" d="M452.68,-743.73C438.62,-725.92 418.14,-700 404.77,-683.06"/>
</g>
<!-- rt_ipfw -->
<g id="node25" class="node">
<title>rt_ipfw</title>
<polygon fill="none" stroke="black" points="456.26,-571.97 414.26,-571.97 414.26,-575.97 402.26,-575.97 402.26,-530.97 456.26,-530.97 456.26,-571.97"/>
<polyline fill="none" stroke="black" points="402.26,-571.97 414.26,-571.97"/>
<text text-anchor="middle" x="429.26" y="-554.67" font-family="Times,serif" font-size="14.00">ipfw</text>
<text text-anchor="middle" x="429.26" y="-538.17" font-family="Times,serif" font-size="14.00">FW</text>
</g>
<!-- onu4&#45;&#45;rt_ipfw -->
<g id="edge18" class="edge">
<title>onu4&#45;&#45;rt_ipfw</title>
<path fill="none" stroke="black" stroke-dasharray="5,2" d="M537.59,-646.88C533.43,-636.16 526.99,-622.52 518.26,-612.47 501.04,-592.62 475.79,-576.44 456.58,-565.9"/>
</g>
<!-- onu6&#45;&#45;rt_ipfw -->
<g id="edge44" class="edge">
<title>onu6&#45;&#45;rt_ipfw</title>
<path fill="none" stroke="black" stroke-dasharray="1,5" d="M397.2,-646.54C404.05,-626.45 415.28,-593.49 422.47,-572.4"/>
<text text-anchor="middle" x="460.51" y="-615.67" font-family="Times,serif" font-size="14.00">:2a0:98ff:fe7a:53ab</text>
</g>
<!-- rt_rtsold -->
<g id="node26" class="node">
<title>rt_rtsold</title>
<polygon fill="none" stroke="black" points="384.26,-569.47 342.26,-569.47 342.26,-573.47 330.26,-573.47 330.26,-533.47 384.26,-533.47 384.26,-569.47"/>
<polyline fill="none" stroke="black" points="330.26,-569.47 342.26,-569.47"/>
<text text-anchor="middle" x="357.26" y="-546.42" font-family="Times,serif" font-size="14.00">rtsold</text>
</g>
<!-- onu6&#45;&#45;rt_rtsold -->
<g id="edge45" class="edge">
<title>onu6&#45;&#45;rt_rtsold</title>
<path fill="none" stroke="black" stroke-dasharray="1,5" d="M383.22,-646.73C380.79,-641.14 378.24,-634.86 376.26,-628.97 369.55,-608.99 364.04,-585.36 360.71,-569.71"/>
</g>
<!-- rt_dhcp6c -->
<g id="node27" class="node">
<title>rt_dhcp6c</title>
<polygon fill="none" stroke="black" points="311.76,-569.47 268.76,-569.47 268.76,-573.47 256.76,-573.47 256.76,-533.47 311.76,-533.47 311.76,-569.47"/>
<polyline fill="none" stroke="black" points="256.76,-569.47 268.76,-569.47"/>
<text text-anchor="middle" x="284.26" y="-546.42" font-family="Times,serif" font-size="14.00">dhcp6c</text>
</g>
<!-- onu6&#45;&#45;rt_dhcp6c -->
<g id="edge46" class="edge">
<title>onu6&#45;&#45;rt_dhcp6c</title>
<path fill="none" stroke="black" stroke-dasharray="1,5" d="M368.89,-647.29C354.49,-636.01 335.82,-620.33 321.26,-604.47 311.38,-593.69 301.85,-580.2 294.94,-569.66"/>
</g>
<!-- rt_pppoec -->
<g id="node30" class="node">
<title>rt_pppoec</title>
<polygon fill="none" stroke="black" points="198.26,-383.48 156.26,-383.48 156.26,-387.48 144.26,-387.48 144.26,-325.98 198.26,-325.98 198.26,-383.48"/>
<polyline fill="none" stroke="black" points="144.26,-383.48 156.26,-383.48"/>
<text text-anchor="middle" x="171.26" y="-366.18" font-family="Times,serif" font-size="14.00">PPPoE</text>
<text text-anchor="middle" x="171.26" y="-349.68" font-family="Times,serif" font-size="14.00">client</text>
<text text-anchor="middle" x="171.26" y="-333.18" font-family="Times,serif" font-size="14.00">mpd5</text>
</g>
<!-- pppoe4&#45;&#45;rt_pppoec -->
<g id="edge22" class="edge">
<title>pppoe4&#45;&#45;rt_pppoec</title>
<path fill="none" stroke="black" stroke-dasharray="5,2" d="M74.89,-646.95C91.64,-596.35 141.27,-446.37 162,-383.72"/>
<text text-anchor="middle" x="128.64" y="-499.67" font-family="Times,serif" font-size="14.00">2</text>
</g>
<!-- rt_dslitec -->
<g id="node31" class="node">
<title>rt_dslitec</title>
<polygon fill="none" stroke="black" points="286.26,-383.48 228.26,-383.48 228.26,-387.48 216.26,-387.48 216.26,-325.98 286.26,-325.98 286.26,-383.48"/>
<polyline fill="none" stroke="black" points="216.26,-383.48 228.26,-383.48"/>
<text text-anchor="middle" x="251.26" y="-366.18" font-family="Times,serif" font-size="14.00">DS&#45;Lite</text>
<text text-anchor="middle" x="251.26" y="-349.68" font-family="Times,serif" font-size="14.00">gif tunnel</text>
<text text-anchor="middle" x="251.26" y="-333.18" font-family="Times,serif" font-size="14.00">(4 over 6)</text>
</g>
<!-- dslite4&#45;&#45;rt_dslitec -->
<g id="edge24" class="edge">
<title>dslite4&#45;&#45;rt_dslitec</title>
<path fill="none" stroke="black" stroke-dasharray="5,2" d="M222.96,-646.51C227.93,-595.44 242.48,-446 248.55,-383.61"/>
<text text-anchor="middle" x="241.64" y="-499.67" font-family="Times,serif" font-size="14.00">2</text>
</g>
<!-- rt_routing6 -->
<g id="node28" class="node">
<title>rt_routing6</title>
<ellipse fill="none" stroke="black" cx="330.26" cy="-449.47" rx="38.89" ry="28.99"/>
<text text-anchor="middle" x="330.26" y="-452.67" font-family="Times,serif" font-size="14.00">IPv6</text>
<text text-anchor="middle" x="330.26" y="-436.17" font-family="Times,serif" font-size="14.00">routing</text>
</g>
<!-- rt_ipfw&#45;&#45;rt_routing6 -->
<g id="edge49" class="edge">
<title>rt_ipfw&#45;&#45;rt_routing6</title>
<path fill="none" stroke="black" stroke-dasharray="1,5" d="M409.71,-530.71C393.36,-514.21 370.05,-490.66 352.9,-473.34"/>
</g>
<!-- rt_bridge4 -->
<g id="node29" class="node">
<title>rt_bridge4</title>
<ellipse fill="none" stroke="black" cx="423.26" cy="-449.47" rx="35.71" ry="28.99"/>
<text text-anchor="middle" x="423.26" y="-452.67" font-family="Times,serif" font-size="14.00">IPv4</text>
<text text-anchor="middle" x="423.26" y="-436.17" font-family="Times,serif" font-size="14.00">bridge</text>
</g>
<!-- rt_ipfw&#45;&#45;rt_bridge4 -->
<g id="edge19" class="edge">
<title>rt_ipfw&#45;&#45;rt_bridge4</title>
<path fill="none" stroke="black" stroke-dasharray="5,2" d="M428.08,-530.71C427.19,-515.91 425.96,-495.45 424.97,-478.9"/>
</g>
<!-- rt_routing6&#45;&#45;rt_pppoec -->
<g id="edge47" class="edge">
<title>rt_routing6&#45;&#45;rt_pppoec</title>
<path fill="none" stroke="black" stroke-dasharray="1,5" d="M297.56,-433.1C272.27,-420.76 236.72,-402.42 207.26,-383.48 204.34,-381.6 201.36,-379.55 198.43,-377.44"/>
</g>
<!-- rt_routing6&#45;&#45;rt_dslitec -->
<g id="edge48" class="edge">
<title>rt_routing6&#45;&#45;rt_dslitec</title>
<path fill="none" stroke="black" stroke-dasharray="1,5" d="M309.92,-424.59C299.31,-412.14 286.28,-396.83 275.19,-383.82"/>
</g>
<!-- pc6 -->
<g id="node37" class="node">
<title>pc6</title>
<ellipse fill="none" stroke="black" cx="382.26" cy="-145" rx="88.2" ry="18"/>
<text text-anchor="middle" x="382.26" y="-139.95" font-family="Times,serif" font-size="14.00">2001:db8:beef:b::/64</text>
</g>
<!-- rt_routing6&#45;&#45;pc6 -->
<g id="edge50" class="edge">
<title>rt_routing6&#45;&#45;pc6</title>
<path fill="none" stroke="black" stroke-dasharray="1,5" d="M355.45,-426.99C388.77,-396.74 445.89,-338 468.26,-273.48 477.88,-245.78 481.68,-233.58 468.26,-207.5 457.77,-187.1 437.02,-171.95 418.53,-161.8"/>
<text text-anchor="middle" x="514.26" y="-294.68" font-family="Times,serif" font-size="14.00">:2a0:98ff:fe36:d646</text>
</g>
<!-- nvr6 -->
<g id="node39" class="node">
<title>nvr6</title>
<ellipse fill="none" stroke="black" cx="576.26" cy="-145" rx="87.69" ry="18"/>
<text text-anchor="middle" x="576.26" y="-139.95" font-family="Times,serif" font-size="14.00">2001:db8:beef:c::/64</text>
</g>
<!-- rt_routing6&#45;&#45;nvr6 -->
<g id="edge51" class="edge">
<title>rt_routing6&#45;&#45;nvr6</title>
<path fill="none" stroke="black" stroke-dasharray="1,5" d="M360.47,-430.84C366.37,-427.4 372.51,-423.83 378.26,-420.48 464.43,-370.38 521.45,-393.73 572.26,-307.98 599.66,-261.76 588.4,-194.34 580.92,-163.09"/>
<text text-anchor="middle" x="631.39" y="-294.68" font-family="Times,serif" font-size="14.00">:2a0:98ff:fe4e:a4f2</text>
</g>
<!-- nvr4 -->
<g id="node38" class="node">
<title>nvr4</title>
<ellipse fill="none" stroke="black" cx="728.26" cy="-145" rx="46.23" ry="18"/>
<text text-anchor="middle" x="728.26" y="-139.95" font-family="Times,serif" font-size="14.00">10.3.3/24</text>
</g>
<!-- rt_bridge4&#45;&#45;nvr4 -->
<g id="edge21" class="edge">
<title>rt_bridge4&#45;&#45;nvr4</title>
<path fill="none" stroke="black" stroke-dasharray="5,2" d="M457.41,-440.01C514.11,-424.14 627.37,-384.39 687.26,-307.98 721.54,-264.26 727.48,-195.31 728.29,-163.34"/>
</g>
<!-- rt_routing4 -->
<g id="node32" class="node">
<title>rt_routing4</title>
<ellipse fill="none" stroke="black" cx="180.26" cy="-244.49" rx="38.89" ry="28.99"/>
<text text-anchor="middle" x="180.26" y="-247.69" font-family="Times,serif" font-size="14.00">IPv4</text>
<text text-anchor="middle" x="180.26" y="-231.19" font-family="Times,serif" font-size="14.00">routing</text>
</g>
<!-- rt_pppoec&#45;&#45;rt_routing4 -->
<g id="edge23" class="edge">
<title>rt_pppoec&#45;&#45;rt_routing4</title>
<path fill="none" stroke="black" stroke-dasharray="5,2" d="M173.61,-325.58C174.93,-309.67 176.58,-289.83 177.9,-273.88"/>
</g>
<!-- rt_dslitec&#45;&#45;rt_routing4 -->
<g id="edge25" class="edge">
<title>rt_dslitec&#45;&#45;rt_routing4</title>
<path fill="none" stroke="black" stroke-dasharray="5,2" d="M232.8,-325.58C221.7,-308.66 207.7,-287.32 196.94,-270.92"/>
</g>
<!-- rt_dhcp4s -->
<g id="node33" class="node">
<title>rt_dhcp4s</title>
<polygon fill="none" stroke="black" points="309.39,-262.49 267.14,-262.49 267.14,-266.49 255.14,-266.49 255.14,-226.49 309.39,-226.49 309.39,-262.49"/>
<polyline fill="none" stroke="black" points="255.14,-262.49 267.14,-262.49"/>
<text text-anchor="middle" x="282.26" y="-239.44" font-family="Times,serif" font-size="14.00">dhcp4s</text>
</g>
<!-- rt_routing4&#45;&#45;rt_dhcp4s -->
<!-- pc4 -->
<g id="node36" class="node">
<title>pc4</title>
<ellipse fill="none" stroke="black" cx="207.26" cy="-145" rx="69.26" ry="18"/>
<text text-anchor="middle" x="207.26" y="-139.95" font-family="Times,serif" font-size="14.00">192.168.222/24</text>
</g>
<!-- rt_routing4&#45;&#45;pc4 -->
<g id="edge20" class="edge">
<title>rt_routing4&#45;&#45;pc4</title>
<path fill="none" stroke="black" stroke-dasharray="5,2" d="M187.93,-215.82C192.61,-198.93 198.44,-177.86 202.47,-163.31"/>
<text text-anchor="middle" x="200.64" y="-184.2" font-family="Times,serif" font-size="14.00">1</text>
</g>
<!-- rt_dhcp4s&#45;&#45;pc4 -->
<g id="edge26" class="edge">
<title>rt_dhcp4s&#45;&#45;pc4</title>
<path fill="none" stroke="black" stroke-dasharray="5,2" d="M268.86,-226.06C255.12,-208.21 233.91,-180.63 220.31,-162.95"/>
</g>
<!-- rt_rtadvd -->
<g id="node34" class="node">
<title>rt_rtadvd</title>
<polygon fill="none" stroke="black" points="381.26,-262.49 339.26,-262.49 339.26,-266.49 327.26,-266.49 327.26,-226.49 381.26,-226.49 381.26,-262.49"/>
<polyline fill="none" stroke="black" points="327.26,-262.49 339.26,-262.49"/>
<text text-anchor="middle" x="354.26" y="-239.44" font-family="Times,serif" font-size="14.00">rtadvd</text>
</g>
<!-- rt_rtadvd&#45;&#45;pc6 -->
<g id="edge52" class="edge">
<title>rt_rtadvd&#45;&#45;pc6</title>
<path fill="none" stroke="black" stroke-dasharray="1,5" d="M359.27,-226.06C364.37,-208.32 372.22,-180.97 377.3,-163.28"/>
</g>
<!-- rt_rtadvd&#45;&#45;nvr6 -->
<g id="edge53" class="edge">
<title>rt_rtadvd&#45;&#45;nvr6</title>
<path fill="none" stroke="black" stroke-dasharray="1,5" d="M368.3,-226.33C374.46,-219.7 382.14,-212.51 390.26,-207.5 428.92,-183.68 477.84,-167.98 515.81,-158.41"/>
</g>
<!-- rt_resolver -->
<g id="node35" class="node">
<title>rt_resolver</title>
<polygon fill="none" stroke="black" points="459.01,-264.99 411.51,-264.99 411.51,-268.99 399.51,-268.99 399.51,-223.99 459.01,-223.99 459.01,-264.99"/>
<polyline fill="none" stroke="black" points="399.51,-264.99 411.51,-264.99"/>
<text text-anchor="middle" x="429.26" y="-247.69" font-family="Times,serif" font-size="14.00">DNS</text>
<text text-anchor="middle" x="429.26" y="-231.19" font-family="Times,serif" font-size="14.00">resolver</text>
</g>
<!-- rt_resolver&#45;&#45;pc4 -->
<g id="edge27" class="edge">
<title>rt_resolver&#45;&#45;pc4</title>
<path fill="none" stroke="black" stroke-dasharray="5,2" d="M411.13,-223.8C404.95,-217.94 397.72,-211.91 390.26,-207.5 349.17,-183.16 297.12,-166.86 259.05,-157.19"/>
</g>
<!-- rt_resolver&#45;&#45;nvr6 -->
<g id="edge54" class="edge">
<title>rt_resolver&#45;&#45;nvr6</title>
<path fill="none" stroke="black" stroke-dasharray="1,5" d="M459.37,-223.53C486.41,-205.59 525.68,-179.55 551.09,-162.69"/>
</g>
<!-- pc_dhcp4c -->
<g id="node40" class="node">
<title>pc_dhcp4c</title>
<polygon fill="none" stroke="black" points="260.76,-52 217.76,-52 217.76,-56 205.76,-56 205.76,-16 260.76,-16 260.76,-52"/>
<polyline fill="none" stroke="black" points="205.76,-52 217.76,-52"/>
<text text-anchor="middle" x="233.26" y="-28.95" font-family="Times,serif" font-size="14.00">dhcp4c</text>
</g>
<!-- pc4&#45;&#45;pc_dhcp4c -->
<g id="edge28" class="edge">
<title>pc4&#45;&#45;pc_dhcp4c</title>
<path fill="none" stroke="black" stroke-dasharray="5,2" d="M211.33,-126.97C216.18,-106.61 224.26,-72.73 229.14,-52.27"/>
<text text-anchor="middle" x="227.01" y="-95.7" font-family="Times,serif" font-size="14.00">10</text>
</g>
<!-- pc_rtsold -->
<g id="node41" class="node">
<title>pc_rtsold</title>
<polygon fill="none" stroke="black" points="333.26,-52 291.26,-52 291.26,-56 279.26,-56 279.26,-16 333.26,-16 333.26,-52"/>
<polyline fill="none" stroke="black" points="279.26,-52 291.26,-52"/>
<text text-anchor="middle" x="306.26" y="-28.95" font-family="Times,serif" font-size="14.00">rtsold</text>
</g>
<!-- pc6&#45;&#45;pc_rtsold -->
<g id="edge55" class="edge">
<title>pc6&#45;&#45;pc_rtsold</title>
<path fill="none" stroke="black" stroke-dasharray="1,5" d="M370.39,-126.97C356.2,-106.61 332.58,-72.73 318.31,-52.27"/>
<text text-anchor="middle" x="410.14" y="-95.7" font-family="Times,serif" font-size="14.00">:2a0:98ff:fe0a:ae8d</text>
</g>
<!-- nvr_dhcp4c -->
<g id="node42" class="node">
<title>nvr_dhcp4c</title>
<polygon fill="none" stroke="black" points="715.76,-52 672.76,-52 672.76,-56 660.76,-56 660.76,-16 715.76,-16 715.76,-52"/>
<polyline fill="none" stroke="black" points="660.76,-52 672.76,-52"/>
<text text-anchor="middle" x="688.26" y="-28.95" font-family="Times,serif" font-size="14.00">dhcp4c</text>
</g>
<!-- nvr4&#45;&#45;nvr_dhcp4c -->
<g id="edge29" class="edge">
<title>nvr4&#45;&#45;nvr_dhcp4c</title>
<path fill="none" stroke="black" stroke-dasharray="5,2" d="M722.01,-126.97C714.54,-106.61 702.11,-72.73 694.6,-52.27"/>
<text text-anchor="middle" x="722.01" y="-95.7" font-family="Times,serif" font-size="14.00">10</text>
</g>
<!-- nvr_rtsold -->
<g id="node43" class="node">
<title>nvr_rtsold</title>
<polygon fill="none" stroke="black" points="642.26,-52 600.26,-52 600.26,-56 588.26,-56 588.26,-16 642.26,-16 642.26,-52"/>
<polyline fill="none" stroke="black" points="588.26,-52 600.26,-52"/>
<text text-anchor="middle" x="615.26" y="-28.95" font-family="Times,serif" font-size="14.00">rtsold</text>
</g>
<!-- nvr6&#45;&#45;nvr_rtsold -->
<g id="edge56" class="edge">
<title>nvr6&#45;&#45;nvr_rtsold</title>
<path fill="none" stroke="black" stroke-dasharray="1,5" d="M581.26,-126.72C584.26,-116.67 588.26,-103.79 592.26,-92.5 597.08,-78.92 603.16,-63.8 607.85,-52.48"/>
<text text-anchor="middle" x="646.26" y="-95.7" font-family="Times,serif" font-size="14.00">:2a0:98ff:fe1b:1822</text>
</g>
</g>
</svg>
