<?xml version="1.0" encoding="UTF-8" standalone="no"?>
<!DOCTYPE svg PUBLIC "-//W3C//DTD SVG 1.1//EN"
 "http://www.w3.org/Graphics/SVG/1.1/DTD/svg11.dtd">
<!-- Generated by graphviz version 10.0.1 (20240210.2158)
 -->
<!-- Title: interfaces Pages: 1 -->
<svg width="784pt" height="1454pt"
 viewBox="0.00 0.00 784.50 1453.91" xmlns="http://www.w3.org/2000/svg" xmlns:xlink="http://www.w3.org/1999/xlink">
<g id="graph0" class="graph" transform="scale(1 1) rotate(0) translate(4 1449.91)">
<title>interfaces</title>
<polygon fill="white" stroke="none" points="-4,4 -4,-1449.91 780.5,-1449.91 780.5,4 -4,4"/>
<g id="clust1" class="cluster">
<title>cluster_hgw</title>
<polygon fill="none" stroke="black" points="333.26,-1211.43 333.26,-1382.91 547.26,-1382.91 547.26,-1211.43 333.26,-1211.43"/>
<text text-anchor="middle" x="440.26" y="-1365.61" font-family="Times,serif" font-size="14.00">Home Gateway</text>
</g>
<g id="clust4" class="cluster">
<title>cluster_mkk</title>
<polygon fill="none" stroke="black" points="173.26,-727.47 173.26,-1103.93 578.26,-1103.93 578.26,-727.47 173.26,-727.47"/>
<text text-anchor="middle" x="375.76" y="-1086.63" font-family="Times,serif" font-size="14.00">mkk</text>
</g>
<g id="clust8" class="cluster">
<title>cluster_router</title>
<polygon fill="none" stroke="black" points="135.26,-207.5 135.26,-604.47 469.26,-604.47 469.26,-207.5 135.26,-207.5"/>
<text text-anchor="middle" x="302.26" y="-587.17" font-family="Times,serif" font-size="14.00">router</text>
</g>
<g id="clust12" class="cluster">
<title>cluster_pc</title>
<polygon fill="none" stroke="black" points="237.26,-8 237.26,-84.5 381.26,-84.5 381.26,-8 237.26,-8"/>
<text text-anchor="middle" x="309.26" y="-67.2" font-family="Times,serif" font-size="14.00">pc</text>
</g>
<g id="clust13" class="cluster">
<title>cluster_nvr</title>
<polygon fill="none" stroke="black" points="582.26,-8 582.26,-84.5 726.26,-84.5 726.26,-8 582.26,-8"/>
<text text-anchor="middle" x="654.26" y="-67.2" font-family="Times,serif" font-size="14.00">nvr</text>
</g>
<!-- internet -->
<g id="node1" class="node">
<title>internet</title>
<ellipse fill="none" stroke="black" cx="427.26" cy="-1427.91" rx="39.58" ry="18"/>
<text text-anchor="middle" x="427.26" y="-1422.86" font-family="Times,serif" font-size="14.00">Internet</text>
</g>
<!-- hgw_routing4 -->
<g id="node2" class="node">
<title>hgw_routing4</title>
<ellipse fill="none" stroke="black" cx="380.26" cy="-1321.42" rx="38.89" ry="28.99"/>
<text text-anchor="middle" x="380.26" y="-1324.62" font-family="Times,serif" font-size="14.00">IPv4</text>
<text text-anchor="middle" x="380.26" y="-1308.12" font-family="Times,serif" font-size="14.00">routing</text>
</g>
<!-- internet&#45;&#45;hgw_routing4 -->
<g id="edge5" class="edge">
<title>internet&#45;&#45;hgw_routing4</title>
<path fill="none" stroke="black" stroke-dasharray="5,2" d="M419.71,-1410.13C412.34,-1393.74 401.01,-1368.55 392.38,-1349.36"/>
</g>
<!-- hgw_routing6 -->
<g id="node3" class="node">
<title>hgw_routing6</title>
<ellipse fill="none" stroke="black" cx="476.26" cy="-1321.42" rx="38.89" ry="28.99"/>
<text text-anchor="middle" x="476.26" y="-1324.62" font-family="Times,serif" font-size="14.00">IPv6</text>
<text text-anchor="middle" x="476.26" y="-1308.12" font-family="Times,serif" font-size="14.00">routing</text>
</g>
<!-- internet&#45;&#45;hgw_routing6 -->
<g id="edge30" class="edge">
<title>internet&#45;&#45;hgw_routing6</title>
<path fill="none" stroke="black" stroke-dasharray="1,5" d="M435.14,-1410.13C442.87,-1393.63 454.8,-1368.19 463.82,-1348.96"/>
</g>
<!-- hgw_dhcp4s -->
<g id="node4" class="node">
<title>hgw_dhcp4s</title>
<polygon fill="none" stroke="black" points="395.39,-1255.43 353.14,-1255.43 353.14,-1259.43 341.14,-1259.43 341.14,-1219.43 395.39,-1219.43 395.39,-1255.43"/>
<polyline fill="none" stroke="black" points="341.14,-1255.43 353.14,-1255.43"/>
<text text-anchor="middle" x="368.26" y="-1232.38" font-family="Times,serif" font-size="14.00">dhcp4s</text>
</g>
<!-- hgw_routing4&#45;&#45;hgw_dhcp4s -->
<!-- lan4 -->
<g id="node7" class="node">
<title>lan4</title>
<ellipse fill="none" stroke="black" cx="277.26" cy="-1164.43" rx="60.05" ry="18"/>
<text text-anchor="middle" x="277.26" y="-1159.38" font-family="Times,serif" font-size="14.00">192.168.1/24</text>
</g>
<!-- hgw_routing4&#45;&#45;lan4 -->
<g id="edge6" class="edge">
<title>hgw_routing4&#45;&#45;lan4</title>
<path fill="none" stroke="black" stroke-dasharray="5,2" d="M341.08,-1320.95C292.94,-1319.2 213.18,-1307.95 176.51,-1255.43 165.32,-1239.4 165.94,-1227.88 176.51,-1211.43 188.21,-1193.23 209.08,-1182.15 228.81,-1175.43"/>
<text text-anchor="middle" x="180.64" y="-1232.38" font-family="Times,serif" font-size="14.00">1</text>
</g>
<!-- lan6 -->
<g id="node8" class="node">
<title>lan6</title>
<ellipse fill="none" stroke="black" cx="440.26" cy="-1164.43" rx="76.43" ry="18"/>
<text text-anchor="middle" x="440.26" y="-1159.38" font-family="Times,serif" font-size="14.00">24xx:xx:xx:xx/64</text>
</g>
<!-- hgw_routing6&#45;&#45;lan6 -->
<g id="edge31" class="edge">
<title>hgw_routing6&#45;&#45;lan6</title>
<path fill="none" stroke="black" stroke-dasharray="1,5" d="M447.66,-1301.45C441.46,-1298 434.81,-1294.77 428.26,-1292.43 379.15,-1274.89 230.36,-1295.11 196.51,-1255.43 183.82,-1240.55 184.03,-1226.49 196.51,-1211.43 198,-1209.63 309.44,-1189.14 381.1,-1176.12"/>
<text text-anchor="middle" x="265.14" y="-1232.38" font-family="Times,serif" font-size="14.00">fe80::225:36ff:fe43:83a5</text>
</g>
<!-- hgw_dhcp4s&#45;&#45;lan4 -->
<g id="edge7" class="edge">
<title>hgw_dhcp4s&#45;&#45;lan4</title>
<path fill="none" stroke="black" stroke-dasharray="5,2" d="M346.24,-1219.24C331.61,-1207.83 312.54,-1192.95 298.15,-1181.73"/>
</g>
<!-- hgw_rtadvd -->
<g id="node5" class="node">
<title>hgw_rtadvd</title>
<polygon fill="none" stroke="black" points="467.26,-1255.43 425.26,-1255.43 425.26,-1259.43 413.26,-1259.43 413.26,-1219.43 467.26,-1219.43 467.26,-1255.43"/>
<polyline fill="none" stroke="black" points="413.26,-1255.43 425.26,-1255.43"/>
<text text-anchor="middle" x="440.26" y="-1232.38" font-family="Times,serif" font-size="14.00">rtadvd</text>
</g>
<!-- hgw_rtadvd&#45;&#45;lan6 -->
<g id="edge32" class="edge">
<title>hgw_rtadvd&#45;&#45;lan6</title>
<path fill="none" stroke="black" stroke-dasharray="1,5" d="M440.26,-1219.24C440.26,-1208.08 440.26,-1193.59 440.26,-1182.46"/>
</g>
<!-- hgw_dhcp6s -->
<g id="node6" class="node">
<title>hgw_dhcp6s</title>
<polygon fill="none" stroke="black" points="539.39,-1255.43 497.14,-1255.43 497.14,-1259.43 485.14,-1259.43 485.14,-1219.43 539.39,-1219.43 539.39,-1255.43"/>
<polyline fill="none" stroke="black" points="485.14,-1255.43 497.14,-1255.43"/>
<text text-anchor="middle" x="512.26" y="-1232.38" font-family="Times,serif" font-size="14.00">dhcp6s</text>
</g>
<!-- hgw_dhcp6s&#45;&#45;lan6 -->
<g id="edge33" class="edge">
<title>hgw_dhcp6s&#45;&#45;lan6</title>
<path fill="none" stroke="black" stroke-dasharray="1,5" d="M494.84,-1219.24C483.35,-1207.92 468.39,-1193.16 457.04,-1181.97"/>
</g>
<!-- mkk_pf -->
<g id="node9" class="node">
<title>mkk_pf</title>
<polygon fill="none" stroke="black" points="362.89,-1071.43 317.64,-1071.43 317.64,-1075.43 305.64,-1075.43 305.64,-1035.43 362.89,-1035.43 362.89,-1071.43"/>
<polyline fill="none" stroke="black" points="305.64,-1071.43 317.64,-1071.43"/>
<text text-anchor="middle" x="334.26" y="-1048.38" font-family="Times,serif" font-size="14.00">pf NAT</text>
</g>
<!-- lan4&#45;&#45;mkk_pf -->
<g id="edge8" class="edge">
<title>lan4&#45;&#45;mkk_pf</title>
<path fill="none" stroke="black" stroke-dasharray="5,2" d="M283.58,-1146.43C287.56,-1136.24 293.01,-1123.14 298.76,-1111.93 305.89,-1098.05 315.19,-1083.07 322.49,-1071.88"/>
<text text-anchor="middle" x="306.01" y="-1115.13" font-family="Times,serif" font-size="14.00">72</text>
</g>
<!-- mkk_dhcp4c -->
<g id="node10" class="node">
<title>mkk_dhcp4c</title>
<polygon fill="none" stroke="black" points="287.76,-1071.43 244.76,-1071.43 244.76,-1075.43 232.76,-1075.43 232.76,-1035.43 287.76,-1035.43 287.76,-1071.43"/>
<polyline fill="none" stroke="black" points="232.76,-1071.43 244.76,-1071.43"/>
<text text-anchor="middle" x="260.26" y="-1048.38" font-family="Times,serif" font-size="14.00">dhcp4c</text>
</g>
<!-- lan4&#45;&#45;mkk_dhcp4c -->
<g id="edge9" class="edge">
<title>lan4&#45;&#45;mkk_dhcp4c</title>
<path fill="none" stroke="black" stroke-dasharray="5,2" d="M274.61,-1146.4C271.43,-1126.04 266.15,-1092.17 262.96,-1071.7"/>
</g>
<!-- lan6&#45;&#45;mkk_pf -->
<g id="edge35" class="edge">
<title>lan6&#45;&#45;mkk_pf</title>
<path fill="none" stroke="black" stroke-dasharray="1,5" d="M376.4,-1154.22C361.6,-1149.02 347.44,-1140.94 338.01,-1128.43 325.86,-1112.3 327.2,-1088.12 330.06,-1071.84"/>
<text text-anchor="middle" x="387.89" y="-1115.13" font-family="Times,serif" font-size="14.00">:2a0:98ff:fe27:fdff</text>
</g>
<!-- mkk_rtsold -->
<g id="node11" class="node">
<title>mkk_rtsold</title>
<polygon fill="none" stroke="black" points="477.26,-1071.43 435.26,-1071.43 435.26,-1075.43 423.26,-1075.43 423.26,-1035.43 477.26,-1035.43 477.26,-1071.43"/>
<polyline fill="none" stroke="black" points="423.26,-1071.43 435.26,-1071.43"/>
<text text-anchor="middle" x="450.26" y="-1048.38" font-family="Times,serif" font-size="14.00">rtsold</text>
</g>
<!-- lan6&#45;&#45;mkk_rtsold -->
<g id="edge34" class="edge">
<title>lan6&#45;&#45;mkk_rtsold</title>
<path fill="none" stroke="black" stroke-dasharray="1,5" d="M441.83,-1146.4C443.69,-1126.04 446.8,-1092.17 448.68,-1071.7"/>
</g>
<!-- mkk_routing4 -->
<g id="node12" class="node">
<title>mkk_routing4</title>
<ellipse fill="none" stroke="black" cx="292.26" cy="-969.44" rx="38.89" ry="28.99"/>
<text text-anchor="middle" x="292.26" y="-972.64" font-family="Times,serif" font-size="14.00">IPv4</text>
<text text-anchor="middle" x="292.26" y="-956.14" font-family="Times,serif" font-size="14.00">routing</text>
</g>
<!-- mkk_pf&#45;&#45;mkk_routing4 -->
<g id="edge10" class="edge">
<title>mkk_pf&#45;&#45;mkk_routing4</title>
<path fill="none" stroke="black" stroke-dasharray="5,2" d="M325.36,-1035.04C319.67,-1023.95 312.2,-1009.36 305.79,-996.85"/>
</g>
<!-- mkk_routing6 -->
<g id="node13" class="node">
<title>mkk_routing6</title>
<ellipse fill="none" stroke="black" cx="292.26" cy="-764.46" rx="38.89" ry="28.99"/>
<text text-anchor="middle" x="292.26" y="-767.66" font-family="Times,serif" font-size="14.00">IPv6</text>
<text text-anchor="middle" x="292.26" y="-751.16" font-family="Times,serif" font-size="14.00">routing</text>
</g>
<!-- mkk_pf&#45;&#45;mkk_routing6 -->
<g id="edge36" class="edge">
<title>mkk_pf&#45;&#45;mkk_routing6</title>
<path fill="none" stroke="black" stroke-dasharray="1,5" d="M337.6,-1035.15C343.86,-999.15 355.14,-913.82 336.26,-845.95 330.76,-826.16 319.63,-805.87 309.94,-790.62"/>
</g>
<!-- mkk_dhcp4s -->
<g id="node14" class="node">
<title>mkk_dhcp4s</title>
<polygon fill="none" stroke="black" points="570.39,-782.46 528.14,-782.46 528.14,-786.46 516.14,-786.46 516.14,-746.46 570.39,-746.46 570.39,-782.46"/>
<polyline fill="none" stroke="black" points="516.14,-782.46 528.14,-782.46"/>
<text text-anchor="middle" x="543.26" y="-759.41" font-family="Times,serif" font-size="14.00">dhcp4s</text>
</g>
<!-- mkk_routing4&#45;&#45;mkk_dhcp4s -->
<!-- mkk_pppoes -->
<g id="node15" class="node">
<title>mkk_pppoes</title>
<polygon fill="none" stroke="black" points="239.26,-903.45 197.26,-903.45 197.26,-907.45 185.26,-907.45 185.26,-845.95 239.26,-845.95 239.26,-903.45"/>
<polyline fill="none" stroke="black" points="185.26,-903.45 197.26,-903.45"/>
<text text-anchor="middle" x="212.26" y="-886.15" font-family="Times,serif" font-size="14.00">PPPoE</text>
<text text-anchor="middle" x="212.26" y="-869.65" font-family="Times,serif" font-size="14.00">server</text>
<text text-anchor="middle" x="212.26" y="-853.15" font-family="Times,serif" font-size="14.00">mpd5</text>
</g>
<!-- mkk_routing4&#45;&#45;mkk_pppoes -->
<g id="edge11" class="edge">
<title>mkk_routing4&#45;&#45;mkk_pppoes</title>
<path fill="none" stroke="black" stroke-dasharray="5,2" d="M271.66,-944.56C260.92,-932.11 247.72,-916.8 236.49,-903.78"/>
</g>
<!-- mkk_dslites -->
<g id="node16" class="node">
<title>mkk_dslites</title>
<polygon fill="none" stroke="black" points="327.26,-903.45 269.26,-903.45 269.26,-907.45 257.26,-907.45 257.26,-845.95 327.26,-845.95 327.26,-903.45"/>
<polyline fill="none" stroke="black" points="257.26,-903.45 269.26,-903.45"/>
<text text-anchor="middle" x="292.26" y="-886.15" font-family="Times,serif" font-size="14.00">DS&#45;Lite</text>
<text text-anchor="middle" x="292.26" y="-869.65" font-family="Times,serif" font-size="14.00">gif tunnel</text>
<text text-anchor="middle" x="292.26" y="-853.15" font-family="Times,serif" font-size="14.00">(4 over 6)</text>
</g>
<!-- mkk_routing4&#45;&#45;mkk_dslites -->
<g id="edge13" class="edge">
<title>mkk_routing4&#45;&#45;mkk_dslites</title>
<path fill="none" stroke="black" stroke-dasharray="5,2" d="M292.26,-940.11C292.26,-928.6 292.26,-915.34 292.26,-903.85"/>
</g>
<!-- onu4 -->
<g id="node20" class="node">
<title>onu4</title>
<ellipse fill="none" stroke="black" cx="543.26" cy="-664.97" rx="46.23" ry="18"/>
<text text-anchor="middle" x="543.26" y="-659.92" font-family="Times,serif" font-size="14.00">10.3.3/24</text>
</g>
<!-- mkk_routing4&#45;&#45;onu4 -->
<g id="edge15" class="edge">
<title>mkk_routing4&#45;&#45;onu4</title>
<path fill="none" stroke="black" stroke-dasharray="5,2" d="M328.91,-959.08C393.71,-940.3 526.6,-891.19 579.26,-793.45 593.17,-767.63 586.94,-755.77 579.26,-727.47 574.8,-710.99 564.68,-694.4 556.31,-682.62"/>
<text text-anchor="middle" x="569.64" y="-814.65" font-family="Times,serif" font-size="14.00">1</text>
</g>
<!-- mkk_rtadvd -->
<g id="node17" class="node">
<title>mkk_rtadvd</title>
<polygon fill="none" stroke="black" points="420.26,-782.46 378.26,-782.46 378.26,-786.46 366.26,-786.46 366.26,-746.46 420.26,-746.46 420.26,-782.46"/>
<polyline fill="none" stroke="black" points="366.26,-782.46 378.26,-782.46"/>
<text text-anchor="middle" x="393.26" y="-759.41" font-family="Times,serif" font-size="14.00">rtadvd</text>
</g>
<!-- mkk_routing6&#45;&#45;mkk_rtadvd -->
<!-- onu6 -->
<g id="node21" class="node">
<title>onu6</title>
<ellipse fill="none" stroke="black" cx="391.26" cy="-664.97" rx="87.69" ry="18"/>
<text text-anchor="middle" x="391.26" y="-659.92" font-family="Times,serif" font-size="14.00">2001:db8:cafe:0::/64</text>
</g>
<!-- mkk_routing6&#45;&#45;onu6 -->
<g id="edge39" class="edge">
<title>mkk_routing6&#45;&#45;onu6</title>
<path fill="none" stroke="black" stroke-dasharray="1,5" d="M278.02,-737.12C273.61,-725.12 271.65,-711.32 279.26,-700.97 288.56,-688.33 302.39,-680.13 317.2,-674.83"/>
<text text-anchor="middle" x="333.26" y="-704.17" font-family="Times,serif" font-size="14.00">:2a0:98ff:fe29:5561</text>
</g>
<!-- mkk_dhcp4s&#45;&#45;onu4 -->
<g id="edge16" class="edge">
<title>mkk_dhcp4s&#45;&#45;onu4</title>
<path fill="none" stroke="black" stroke-dasharray="5,2" d="M543.26,-746.03C543.26,-728.28 543.26,-700.93 543.26,-683.24"/>
</g>
<!-- mkk_pppoes&#45;&#45;mkk_routing6 -->
<g id="edge37" class="edge">
<title>mkk_pppoes&#45;&#45;mkk_routing6</title>
<path fill="none" stroke="black" stroke-dasharray="1,5" d="M233.07,-845.54C245.76,-828.38 261.82,-806.65 274.01,-790.16"/>
</g>
<!-- pppoe4 -->
<g id="node22" class="node">
<title>pppoe4</title>
<ellipse fill="none" stroke="black" cx="69.26" cy="-664.97" rx="69.26" ry="18"/>
<text text-anchor="middle" x="69.26" y="-659.92" font-family="Times,serif" font-size="14.00">192.168.111/30</text>
</g>
<!-- mkk_pppoes&#45;&#45;pppoe4 -->
<g id="edge12" class="edge">
<title>mkk_pppoes&#45;&#45;pppoe4</title>
<path fill="none" stroke="black" stroke-dasharray="5,2" d="M187.05,-845.58C174.06,-830.56 158.3,-811.49 145.51,-793.45 118.68,-755.57 91.88,-707.93 78.34,-682.99"/>
<text text-anchor="middle" x="149.64" y="-759.41" font-family="Times,serif" font-size="14.00">1</text>
</g>
<!-- mkk_dslites&#45;&#45;mkk_routing6 -->
<g id="edge38" class="edge">
<title>mkk_dslites&#45;&#45;mkk_routing6</title>
<path fill="none" stroke="black" stroke-dasharray="1,5" d="M292.26,-845.54C292.26,-829.63 292.26,-809.8 292.26,-793.85"/>
</g>
<!-- dslite4 -->
<g id="node23" class="node">
<title>dslite4</title>
<ellipse fill="none" stroke="black" cx="221.26" cy="-664.97" rx="64.66" ry="18"/>
<text text-anchor="middle" x="221.26" y="-659.92" font-family="Times,serif" font-size="14.00">192.168.99/30</text>
</g>
<!-- mkk_dslites&#45;&#45;dslite4 -->
<g id="edge14" class="edge">
<title>mkk_dslites&#45;&#45;dslite4</title>
<path fill="none" stroke="black" stroke-dasharray="5,2" d="M257.02,-851.45C219.57,-827.81 165.68,-793.75 165.51,-793.45 151.37,-767.76 154.96,-754.83 165.51,-727.47 172.47,-709.45 187.41,-693.44 200.08,-682.28"/>
<text text-anchor="middle" x="169.64" y="-759.41" font-family="Times,serif" font-size="14.00">1</text>
</g>
<!-- mkk_rtadvd&#45;&#45;onu6 -->
<g id="edge40" class="edge">
<title>mkk_rtadvd&#45;&#45;onu6</title>
<path fill="none" stroke="black" stroke-dasharray="1,5" d="M392.91,-746.03C392.54,-728.28 391.98,-700.93 391.62,-683.24"/>
</g>
<!-- mkk_dhcp6s -->
<g id="node18" class="node">
<title>mkk_dhcp6s</title>
<polygon fill="none" stroke="black" points="235.39,-782.46 193.14,-782.46 193.14,-786.46 181.14,-786.46 181.14,-746.46 235.39,-746.46 235.39,-782.46"/>
<polyline fill="none" stroke="black" points="181.14,-782.46 193.14,-782.46"/>
<text text-anchor="middle" x="208.26" y="-759.41" font-family="Times,serif" font-size="14.00">dhcp6s</text>
</g>
<!-- mkk_dhcp6s&#45;&#45;onu6 -->
<g id="edge41" class="edge">
<title>mkk_dhcp6s&#45;&#45;onu6</title>
<path fill="none" stroke="black" stroke-dasharray="1,5" d="M221.21,-746.2C232.65,-732.11 250.55,-712.66 270.26,-700.97 287.85,-690.53 308.73,-683.05 328.15,-677.76"/>
</g>
<!-- mkk_resolver -->
<g id="node19" class="node">
<title>mkk_resolver</title>
<polygon fill="none" stroke="black" points="498.01,-784.96 450.51,-784.96 450.51,-788.96 438.51,-788.96 438.51,-743.96 498.01,-743.96 498.01,-784.96"/>
<polyline fill="none" stroke="black" points="438.51,-784.96 450.51,-784.96"/>
<text text-anchor="middle" x="468.26" y="-767.66" font-family="Times,serif" font-size="14.00">DNS</text>
<text text-anchor="middle" x="468.26" y="-751.16" font-family="Times,serif" font-size="14.00">resolver</text>
</g>
<!-- mkk_resolver&#45;&#45;onu4 -->
<g id="edge17" class="edge">
<title>mkk_resolver&#45;&#45;onu4</title>
<path fill="none" stroke="black" stroke-dasharray="5,2" d="M483.44,-743.73C497.22,-725.81 517.33,-699.67 530.36,-682.74"/>
</g>
<!-- mkk_resolver&#45;&#45;onu6 -->
<g id="edge42" class="edge">
<title>mkk_resolver&#45;&#45;onu6</title>
<path fill="none" stroke="black" stroke-dasharray="1,5" d="M452.68,-743.73C438.62,-725.92 418.14,-700 404.77,-683.06"/>
</g>
<!-- rt_ipfw -->
<g id="node24" class="node">
<title>rt_ipfw</title>
<polygon fill="none" stroke="black" points="457.26,-571.97 415.26,-571.97 415.26,-575.97 403.26,-575.97 403.26,-530.97 457.26,-530.97 457.26,-571.97"/>
<polyline fill="none" stroke="black" points="403.26,-571.97 415.26,-571.97"/>
<text text-anchor="middle" x="430.26" y="-554.67" font-family="Times,serif" font-size="14.00">ipfw</text>
<text text-anchor="middle" x="430.26" y="-538.17" font-family="Times,serif" font-size="14.00">FW</text>
</g>
<!-- onu4&#45;&#45;rt_ipfw -->
<g id="edge18" class="edge">
<title>onu4&#45;&#45;rt_ipfw</title>
<path fill="none" stroke="black" stroke-dasharray="5,2" d="M537.96,-646.87C534.02,-636.16 527.85,-622.52 519.26,-612.47 502.2,-592.49 476.93,-576.31 457.68,-565.82"/>
</g>
<!-- onu6&#45;&#45;rt_ipfw -->
<g id="edge43" class="edge">
<title>onu6&#45;&#45;rt_ipfw</title>
<path fill="none" stroke="black" stroke-dasharray="1,5" d="M397.36,-646.54C404.39,-626.45 415.91,-593.49 423.29,-572.4"/>
<text text-anchor="middle" x="461.51" y="-615.67" font-family="Times,serif" font-size="14.00">:2a0:98ff:fe7a:53ab</text>
</g>
<!-- rt_rtsold -->
<g id="node25" class="node">
<title>rt_rtsold</title>
<polygon fill="none" stroke="black" points="385.26,-569.47 343.26,-569.47 343.26,-573.47 331.26,-573.47 331.26,-533.47 385.26,-533.47 385.26,-569.47"/>
<polyline fill="none" stroke="black" points="331.26,-569.47 343.26,-569.47"/>
<text text-anchor="middle" x="358.26" y="-546.42" font-family="Times,serif" font-size="14.00">rtsold</text>
</g>
<!-- onu6&#45;&#45;rt_rtsold -->
<g id="edge44" class="edge">
<title>onu6&#45;&#45;rt_rtsold</title>
<path fill="none" stroke="black" stroke-dasharray="1,5" d="M383.81,-646.69C381.54,-641.09 379.15,-634.82 377.26,-628.97 370.8,-608.91 365.23,-585.3 361.83,-569.67"/>
</g>
<!-- rt_dhcp6c -->
<g id="node26" class="node">
<title>rt_dhcp6c</title>
<polygon fill="none" stroke="black" points="312.76,-569.47 269.76,-569.47 269.76,-573.47 257.76,-573.47 257.76,-533.47 312.76,-533.47 312.76,-569.47"/>
<polyline fill="none" stroke="black" points="257.76,-569.47 269.76,-569.47"/>
<text text-anchor="middle" x="285.26" y="-546.42" font-family="Times,serif" font-size="14.00">dhcp6c</text>
</g>
<!-- onu6&#45;&#45;rt_dhcp6c -->
<g id="edge45" class="edge">
<title>onu6&#45;&#45;rt_dhcp6c</title>
<path fill="none" stroke="black" stroke-dasharray="1,5" d="M369.23,-647.23C355.05,-635.94 336.64,-620.25 322.26,-604.47 312.42,-593.65 302.89,-580.17 295.97,-569.64"/>
</g>
<!-- rt_pppoec -->
<g id="node29" class="node">
<title>rt_pppoec</title>
<polygon fill="none" stroke="black" points="201.26,-383.48 159.26,-383.48 159.26,-387.48 147.26,-387.48 147.26,-325.98 201.26,-325.98 201.26,-383.48"/>
<polyline fill="none" stroke="black" points="147.26,-383.48 159.26,-383.48"/>
<text text-anchor="middle" x="174.26" y="-366.18" font-family="Times,serif" font-size="14.00">PPPoE</text>
<text text-anchor="middle" x="174.26" y="-349.68" font-family="Times,serif" font-size="14.00">client</text>
<text text-anchor="middle" x="174.26" y="-333.18" font-family="Times,serif" font-size="14.00">mpd5</text>
</g>
<!-- pppoe4&#45;&#45;rt_pppoec -->
<g id="edge22" class="edge">
<title>pppoe4&#45;&#45;rt_pppoec</title>
<path fill="none" stroke="black" stroke-dasharray="5,2" d="M75.06,-646.95C92.3,-596.35 143.39,-446.37 164.73,-383.72"/>
<text text-anchor="middle" x="130.64" y="-499.67" font-family="Times,serif" font-size="14.00">2</text>
</g>
<!-- rt_dslitec -->
<g id="node30" class="node">
<title>rt_dslitec</title>
<polygon fill="none" stroke="black" points="289.26,-383.48 231.26,-383.48 231.26,-387.48 219.26,-387.48 219.26,-325.98 289.26,-325.98 289.26,-383.48"/>
<polyline fill="none" stroke="black" points="219.26,-383.48 231.26,-383.48"/>
<text text-anchor="middle" x="254.26" y="-366.18" font-family="Times,serif" font-size="14.00">DS&#45;Lite</text>
<text text-anchor="middle" x="254.26" y="-349.68" font-family="Times,serif" font-size="14.00">gif tunnel</text>
<text text-anchor="middle" x="254.26" y="-333.18" font-family="Times,serif" font-size="14.00">(4 over 6)</text>
</g>
<!-- dslite4&#45;&#45;rt_dslitec -->
<g id="edge24" class="edge">
<title>dslite4&#45;&#45;rt_dslitec</title>
<path fill="none" stroke="black" stroke-dasharray="5,2" d="M223.13,-646.51C228.6,-595.44 244.6,-446 251.28,-383.61"/>
<text text-anchor="middle" x="242.64" y="-499.67" font-family="Times,serif" font-size="14.00">2</text>
</g>
<!-- rt_routing6 -->
<g id="node27" class="node">
<title>rt_routing6</title>
<ellipse fill="none" stroke="black" cx="332.26" cy="-449.47" rx="38.89" ry="28.99"/>
<text text-anchor="middle" x="332.26" y="-452.67" font-family="Times,serif" font-size="14.00">IPv6</text>
<text text-anchor="middle" x="332.26" y="-436.17" font-family="Times,serif" font-size="14.00">routing</text>
</g>
<!-- rt_ipfw&#45;&#45;rt_routing6 -->
<g id="edge48" class="edge">
<title>rt_ipfw&#45;&#45;rt_routing6</title>
<path fill="none" stroke="black" stroke-dasharray="1,5" d="M410.9,-530.71C394.73,-514.21 371.65,-490.66 354.67,-473.34"/>
</g>
<!-- rt_bridge4 -->
<g id="node28" class="node">
<title>rt_bridge4</title>
<ellipse fill="none" stroke="black" cx="425.26" cy="-449.47" rx="35.71" ry="28.99"/>
<text text-anchor="middle" x="425.26" y="-452.67" font-family="Times,serif" font-size="14.00">IPv4</text>
<text text-anchor="middle" x="425.26" y="-436.17" font-family="Times,serif" font-size="14.00">bridge</text>
</g>
<!-- rt_ipfw&#45;&#45;rt_bridge4 -->
<g id="edge19" class="edge">
<title>rt_ipfw&#45;&#45;rt_bridge4</title>
<path fill="none" stroke="black" stroke-dasharray="5,2" d="M429.28,-530.71C428.54,-515.91 427.51,-495.45 426.69,-478.9"/>
</g>
<!-- rt_routing6&#45;&#45;rt_pppoec -->
<g id="edge46" class="edge">
<title>rt_routing6&#45;&#45;rt_pppoec</title>
<path fill="none" stroke="black" stroke-dasharray="1,5" d="M299.84,-433.06C274.76,-420.7 239.5,-402.35 210.26,-383.48 207.35,-381.6 204.37,-379.54 201.44,-377.43"/>
</g>
<!-- rt_routing6&#45;&#45;rt_dslitec -->
<g id="edge47" class="edge">
<title>rt_routing6&#45;&#45;rt_dslitec</title>
<path fill="none" stroke="black" stroke-dasharray="1,5" d="M312.18,-424.59C301.71,-412.14 288.83,-396.83 277.89,-383.82"/>
</g>
<!-- pc6 -->
<g id="node36" class="node">
<title>pc6</title>
<ellipse fill="none" stroke="black" cx="384.26" cy="-145" rx="88.2" ry="18"/>
<text text-anchor="middle" x="384.26" y="-139.95" font-family="Times,serif" font-size="14.00">2001:db8:beef:b::/64</text>
</g>
<!-- rt_routing6&#45;&#45;pc6 -->
<g id="edge49" class="edge">
<title>rt_routing6&#45;&#45;pc6</title>
<path fill="none" stroke="black" stroke-dasharray="1,5" d="M357.45,-426.99C390.77,-396.74 447.89,-338 470.26,-273.48 479.88,-245.78 483.68,-233.58 470.26,-207.5 459.77,-187.1 439.02,-171.95 420.53,-161.8"/>
<text text-anchor="middle" x="516.26" y="-294.68" font-family="Times,serif" font-size="14.00">:2a0:98ff:fe36:d646</text>
</g>
<!-- nvr6 -->
<g id="node38" class="node">
<title>nvr6</title>
<ellipse fill="none" stroke="black" cx="578.26" cy="-145" rx="87.69" ry="18"/>
<text text-anchor="middle" x="578.26" y="-139.95" font-family="Times,serif" font-size="14.00">2001:db8:beef:c::/64</text>
</g>
<!-- rt_routing6&#45;&#45;nvr6 -->
<g id="edge50" class="edge">
<title>rt_routing6&#45;&#45;nvr6</title>
<path fill="none" stroke="black" stroke-dasharray="1,5" d="M362.47,-430.84C368.37,-427.4 374.51,-423.83 380.26,-420.48 466.43,-370.38 523.45,-393.73 574.26,-307.98 601.66,-261.76 590.4,-194.34 582.92,-163.09"/>
<text text-anchor="middle" x="633.39" y="-294.68" font-family="Times,serif" font-size="14.00">:2a0:98ff:fe4e:a4f2</text>
</g>
<!-- nvr4 -->
<g id="node37" class="node">
<title>nvr4</title>
<ellipse fill="none" stroke="black" cx="730.26" cy="-145" rx="46.23" ry="18"/>
<text text-anchor="middle" x="730.26" y="-139.95" font-family="Times,serif" font-size="14.00">10.3.3/24</text>
</g>
<!-- rt_bridge4&#45;&#45;nvr4 -->
<g id="edge21" class="edge">
<title>rt_bridge4&#45;&#45;nvr4</title>
<path fill="none" stroke="black" stroke-dasharray="5,2" d="M459.41,-440.01C516.11,-424.14 629.37,-384.39 689.26,-307.98 723.54,-264.26 729.48,-195.31 730.29,-163.34"/>
</g>
<!-- rt_routing4 -->
<g id="node31" class="node">
<title>rt_routing4</title>
<ellipse fill="none" stroke="black" cx="182.26" cy="-244.49" rx="38.89" ry="28.99"/>
<text text-anchor="middle" x="182.26" y="-247.69" font-family="Times,serif" font-size="14.00">IPv4</text>
<text text-anchor="middle" x="182.26" y="-231.19" font-family="Times,serif" font-size="14.00">routing</text>
</g>
<!-- rt_pppoec&#45;&#45;rt_routing4 -->
<g id="edge23" class="edge">
<title>rt_pppoec&#45;&#45;rt_routing4</title>
<path fill="none" stroke="black" stroke-dasharray="5,2" d="M176.35,-325.58C177.52,-309.67 178.99,-289.83 180.17,-273.88"/>
</g>
<!-- rt_dslitec&#45;&#45;rt_routing4 -->
<g id="edge25" class="edge">
<title>rt_dslitec&#45;&#45;rt_routing4</title>
<path fill="none" stroke="black" stroke-dasharray="5,2" d="M235.54,-325.58C224.29,-308.66 210.09,-287.32 199.18,-270.92"/>
</g>
<!-- rt_dhcp4s -->
<g id="node32" class="node">
<title>rt_dhcp4s</title>
<polygon fill="none" stroke="black" points="311.39,-262.49 269.14,-262.49 269.14,-266.49 257.14,-266.49 257.14,-226.49 311.39,-226.49 311.39,-262.49"/>
<polyline fill="none" stroke="black" points="257.14,-262.49 269.14,-262.49"/>
<text text-anchor="middle" x="284.26" y="-239.44" font-family="Times,serif" font-size="14.00">dhcp4s</text>
</g>
<!-- rt_routing4&#45;&#45;rt_dhcp4s -->
<!-- pc4 -->
<g id="node35" class="node">
<title>pc4</title>
<ellipse fill="none" stroke="black" cx="209.26" cy="-145" rx="69.26" ry="18"/>
<text text-anchor="middle" x="209.26" y="-139.95" font-family="Times,serif" font-size="14.00">192.168.222/24</text>
</g>
<!-- rt_routing4&#45;&#45;pc4 -->
<g id="edge20" class="edge">
<title>rt_routing4&#45;&#45;pc4</title>
<path fill="none" stroke="black" stroke-dasharray="5,2" d="M189.93,-215.82C194.61,-198.93 200.44,-177.86 204.47,-163.31"/>
<text text-anchor="middle" x="202.64" y="-184.2" font-family="Times,serif" font-size="14.00">1</text>
</g>
<!-- rt_dhcp4s&#45;&#45;pc4 -->
<g id="edge26" class="edge">
<title>rt_dhcp4s&#45;&#45;pc4</title>
<path fill="none" stroke="black" stroke-dasharray="5,2" d="M270.86,-226.06C257.12,-208.21 235.91,-180.63 222.31,-162.95"/>
</g>
<!-- rt_rtadvd -->
<g id="node33" class="node">
<title>rt_rtadvd</title>
<polygon fill="none" stroke="black" points="383.26,-262.49 341.26,-262.49 341.26,-266.49 329.26,-266.49 329.26,-226.49 383.26,-226.49 383.26,-262.49"/>
<polyline fill="none" stroke="black" points="329.26,-262.49 341.26,-262.49"/>
<text text-anchor="middle" x="356.26" y="-239.44" font-family="Times,serif" font-size="14.00">rtadvd</text>
</g>
<!-- rt_rtadvd&#45;&#45;pc6 -->
<g id="edge51" class="edge">
<title>rt_rtadvd&#45;&#45;pc6</title>
<path fill="none" stroke="black" stroke-dasharray="1,5" d="M361.27,-226.06C366.37,-208.32 374.22,-180.97 379.3,-163.28"/>
</g>
<!-- rt_rtadvd&#45;&#45;nvr6 -->
<g id="edge52" class="edge">
<title>rt_rtadvd&#45;&#45;nvr6</title>
<path fill="none" stroke="black" stroke-dasharray="1,5" d="M370.3,-226.33C376.46,-219.7 384.14,-212.51 392.26,-207.5 430.92,-183.68 479.84,-167.98 517.81,-158.41"/>
</g>
<!-- rt_resolver -->
<g id="node34" class="node">
<title>rt_resolver</title>
<polygon fill="none" stroke="black" points="461.01,-264.99 413.51,-264.99 413.51,-268.99 401.51,-268.99 401.51,-223.99 461.01,-223.99 461.01,-264.99"/>
<polyline fill="none" stroke="black" points="401.51,-264.99 413.51,-264.99"/>
<text text-anchor="middle" x="431.26" y="-247.69" font-family="Times,serif" font-size="14.00">DNS</text>
<text text-anchor="middle" x="431.26" y="-231.19" font-family="Times,serif" font-size="14.00">resolver</text>
</g>
<!-- rt_resolver&#45;&#45;pc4 -->
<g id="edge27" class="edge">
<title>rt_resolver&#45;&#45;pc4</title>
<path fill="none" stroke="black" stroke-dasharray="5,2" d="M413.13,-223.8C406.95,-217.94 399.72,-211.91 392.26,-207.5 351.17,-183.16 299.12,-166.86 261.05,-157.19"/>
</g>
<!-- rt_resolver&#45;&#45;nvr6 -->
<g id="edge53" class="edge">
<title>rt_resolver&#45;&#45;nvr6</title>
<path fill="none" stroke="black" stroke-dasharray="1,5" d="M461.37,-223.53C488.41,-205.59 527.68,-179.55 553.09,-162.69"/>
</g>
<!-- pc_dhcp4c -->
<g id="node39" class="node">
<title>pc_dhcp4c</title>
<polygon fill="none" stroke="black" points="300.76,-52 257.76,-52 257.76,-56 245.76,-56 245.76,-16 300.76,-16 300.76,-52"/>
<polyline fill="none" stroke="black" points="245.76,-52 257.76,-52"/>
<text text-anchor="middle" x="273.26" y="-28.95" font-family="Times,serif" font-size="14.00">dhcp4c</text>
</g>
<!-- pc4&#45;&#45;pc_dhcp4c -->
<g id="edge28" class="edge">
<title>pc4&#45;&#45;pc_dhcp4c</title>
<path fill="none" stroke="black" stroke-dasharray="5,2" d="M219.26,-126.97C231.22,-106.61 251.11,-72.73 263.12,-52.27"/>
<text text-anchor="middle" x="247.01" y="-95.7" font-family="Times,serif" font-size="14.00">10</text>
</g>
<!-- pc_rtsold -->
<g id="node40" class="node">
<title>pc_rtsold</title>
<polygon fill="none" stroke="black" points="373.26,-52 331.26,-52 331.26,-56 319.26,-56 319.26,-16 373.26,-16 373.26,-52"/>
<polyline fill="none" stroke="black" points="319.26,-52 331.26,-52"/>
<text text-anchor="middle" x="346.26" y="-28.95" font-family="Times,serif" font-size="14.00">rtsold</text>
</g>
<!-- pc6&#45;&#45;pc_rtsold -->
<g id="edge54" class="edge">
<title>pc6&#45;&#45;pc_rtsold</title>
<path fill="none" stroke="black" stroke-dasharray="1,5" d="M378.33,-126.97C371.23,-106.61 359.42,-72.73 352.29,-52.27"/>
<text text-anchor="middle" x="424.14" y="-95.7" font-family="Times,serif" font-size="14.00">:2a0:98ff:fe0a:ae8d</text>
</g>
<!-- nvr_dhcp4c -->
<g id="node41" class="node">
<title>nvr_dhcp4c</title>
<polygon fill="none" stroke="black" points="717.76,-52 674.76,-52 674.76,-56 662.76,-56 662.76,-16 717.76,-16 717.76,-52"/>
<polyline fill="none" stroke="black" points="662.76,-52 674.76,-52"/>
<text text-anchor="middle" x="690.26" y="-28.95" font-family="Times,serif" font-size="14.00">dhcp4c</text>
</g>
<!-- nvr4&#45;&#45;nvr_dhcp4c -->
<g id="edge29" class="edge">
<title>nvr4&#45;&#45;nvr_dhcp4c</title>
<path fill="none" stroke="black" stroke-dasharray="5,2" d="M724.01,-126.97C716.54,-106.61 704.11,-72.73 696.6,-52.27"/>
<text text-anchor="middle" x="724.01" y="-95.7" font-family="Times,serif" font-size="14.00">10</text>
</g>
<!-- nvr_rtsold -->
<g id="node42" class="node">
<title>nvr_rtsold</title>
<polygon fill="none" stroke="black" points="644.26,-52 602.26,-52 602.26,-56 590.26,-56 590.26,-16 644.26,-16 644.26,-52"/>
<polyline fill="none" stroke="black" points="590.26,-52 602.26,-52"/>
<text text-anchor="middle" x="617.26" y="-28.95" font-family="Times,serif" font-size="14.00">rtsold</text>
</g>
<!-- nvr6&#45;&#45;nvr_rtsold -->
<g id="edge55" class="edge">
<title>nvr6&#45;&#45;nvr_rtsold</title>
<path fill="none" stroke="black" stroke-dasharray="1,5" d="M583.26,-126.72C586.26,-116.67 590.26,-103.79 594.26,-92.5 599.08,-78.92 605.16,-63.8 609.85,-52.48"/>
<text text-anchor="middle" x="648.26" y="-95.7" font-family="Times,serif" font-size="14.00">:2a0:98ff:fe1b:1822</text>
</g>
</g>
</svg>
